<?xml version="1.0" encoding="utf-8"?>
<!-- Generator: Adobe Illustrator 27.7.0, SVG Export Plug-In . SVG Version: 6.00 Build 0)  -->
<svg version="1.1" id="Capa_1" xmlns="http://www.w3.org/2000/svg" xmlns:xlink="http://www.w3.org/1999/xlink" x="0px" y="0px"
	 viewBox="0 0 2424 715" style="enable-background:new 0 0 2424 715;" xml:space="preserve">
<style type="text/css">
	.st0{fill:#D0B787;}
	.st1{fill:#FFFFFF;}
</style>
<g>
	<path class="st0" d="M1150.2,157.7L1257,264c0.6,0.6,0.6,1.5,0,2l-6.7,6.7c-0.6,0.6-1.5,0.6-2,0l-106.7-106.4c-0.6-0.6-0.6-1.5,0-2
		l6.7-6.7C1148.8,157.1,1149.7,157.1,1150.2,157.7z"/>
	<path class="st0" d="M1317.6,324.3c-21.9-1.7-41.4-14.7-54-31.9c-0.7-1-0.6-2.3,0.2-3.2l5.7-5.7c0.5-0.5,1.3-0.5,1.8,0
		c0,0,0.1,0.1,0.1,0.1c16.4,19.8,39.2,32.8,65.5,28.5c20.2-3.3,39.2-17.9,53.7-31.6c0.4-0.4,0.4-1,0-1.4
		c-13.2-13.8-32-28.2-50.6-31.4c-6-1-12.5-1.2-19.7-0.4c-19.9,2.1-34.9,13.5-48.8,27.3c-12.6,12.5-25.7,25.1-39.1,37.9
		c-0.7,0.7-1.8,0.6-2.5-0.1c0,0,0,0-0.1-0.1l-5.7-6.6c-0.4-0.5-0.4-1.1,0-1.6c1.5-1.8,3.2-3.6,5-5.3c9.1-8.6,18.1-17.3,27.1-26
		c4.8-4.6,11.2-11.8,17-16.7c15.3-13,31.1-19.1,50.1-21.1c7.8-0.8,21.2,1.1,26.6,2.8c23.4,7.7,40.6,22.5,56.4,40.8
		c0.5,0.6,0.5,1.1,0,1.7c-9.4,11.3-19.9,20.8-31.4,28.6c-15.6,10.5-37,18.3-56.6,15.5C1318.2,324.3,1317.8,324.3,1317.6,324.3z"/>
	<path class="st0" d="M1331.4,276.2l31.7,0.1c0.4,0,0.6,0.2,0.6,0.6l-0.1,5.1c0,0.5-0.2,0.7-0.7,0.7l-31.5-0.2
		c-0.2,0-0.4,0.2-0.4,0.4c0,0.1,0,0.2,0.1,0.3c3.7,3.4,11.6,8.2,13.6,12.4c0.1,0.3,0.1,0.6-0.1,0.8l-3.1,3c-0.4,0.4-1.1,0.4-1.5,0
		c-4.9-4.5-9.8-8.9-14.9-13c-1.2-1-3.6-2.8-4.6-3.5c-0.3-0.2-0.7-0.4-1.1-0.4c-1.8-0.1-7-0.3-10.4,0.2c-0.2,0-0.4,0.3-0.4,0.5
		c0,0.1,0.1,0.2,0.1,0.2l14.7,16.2c0.2,0.3,0.3,0.7,0.2,1c-0.8,1.8-2.2,3.1-4.1,3.7c-0.4,0.1-0.8,0-1-0.3
		c-8.6-10.3-14.3-16.7-17.1-19.4c-0.2-0.2-0.8-0.9-1.2-1.3c-0.3-0.3-0.6-0.5-1-0.5c-3,0-15.6-0.1-20.4-0.4c-0.4,0-0.7-0.4-0.7-0.7
		V277c0-0.5,0.2-0.7,0.7-0.7c4.3-0.1,17.5-0.2,20.5-0.2c0.4,0,0.8-0.1,1.2-0.4c0.7-0.5,1.8-1.4,2.3-1.9c5-4.7,9.9-9.5,14.7-14.2
		c0.8-0.8,1.8-1.5,2.8-2.1c0.2-0.1,0.5-0.2,0.8-0.1c1.7,0.6,2.7,1.9,3.1,3.6c0.1,0.4,0,0.8-0.3,1l-13.7,13.5c-0.2,0.2-0.2,0.4,0,0.6
		c0.1,0.1,0.2,0.1,0.3,0.1c3.7,0.1,8.3-0.1,9.9-0.1c0.4,0,0.8-0.2,1.2-0.4c0.9-0.8,2.8-2.4,3.6-3.1c5-4.4,10.1-8.6,15.2-12.8
		c0.3-0.2,0.7-0.2,0.9,0l3,2.7c0.7,0.6,0.7,1.6,0.1,2.3c-0.1,0.1-0.1,0.1-0.2,0.2l-13.1,10.7C1330.8,276,1330.8,276.2,1331.4,276.2z
		"/>
	<path class="st0" d="M1216.3,330.3c-17.5,29.4-42.6,38.7-75.6,33.2c-0.3-0.1-1.2-0.3-1.4-0.3c-25.8-6.4-49.9-23-68.6-41.1
		c-0.8-0.8-0.8-1.5,0-2.2c18.4-17.2,37.9-32.2,61.7-40.9c9.9-3.6,19.9-4.5,30.3-4.2c25.5,0.9,42.4,17.8,61.4,37.6
		c37.1,38.6,72.6,79.1,108.3,119c1.2,1.3,2.3,2.7,3.4,4c0.3,0.4,0.2,0.7-0.1,1l-7.8,6.8c-0.4,0.3-1,0.3-1.3-0.1c0,0,0,0,0,0
		c-34.7-39.1-69.9-77.9-105.5-116.5c-4.6-5-11.1-11.4-19.7-19.4c-6.6-6.2-11.8-10.4-15.4-12.7c-19.5-12.1-39.5-9.6-59.4-0.1
		c-14.2,6.7-26.8,15.4-37.9,26.1c-0.7,0.7-0.7,1.3,0.1,1.9c18.3,14.1,44.5,31,68.4,31.2c24,0.2,38-12.7,50.6-32.1
		c0.3-0.4,0.9-0.6,1.3-0.3c0.1,0,0.1,0.1,0.2,0.1l6.7,6.7C1216.7,328.7,1216.8,329.4,1216.3,330.3z"/>
	<path class="st0" d="M1168.9,316.4c-5-4.3-9.7-8.8-14.3-13.6c-2-2.1-0.5-4.8,1.9-5.3c0.3-0.1,0.6,0,0.9,0.1
		c1.4,0.8,2.3,1.4,2.7,1.7c6.2,6,12.4,12.1,18.6,18.1c0.2,0.2,0.5,0.4,0.9,0.4c5.6,0.3,11.3,0.4,17,0.2c5.3-0.2,3.7,6.5-0.5,6.2
		c-3.6-0.2-14.4-0.1-16.6-0.1c-0.3,0-0.5,0.1-0.8,0.3c-0.4,0.4-1.2,1-1.9,1.7c-5.8,5.5-12.2,11-17.6,16.8c-2.4,2.6-5.8-0.1-5.5-3.2
		c0-0.3,0.1-0.6,0.2-0.7l15.4-14.4c0.2-0.2,0.2-0.5,0-0.7c-0.1-0.1-0.2-0.2-0.4-0.2l-10.7,0.2c-0.2,0-0.5,0.1-0.7,0.2
		c-6.2,4.8-12.3,9.8-18.3,14.7c-3.6,3-8-1.9-4.9-4.1c4.4-3.3,8.6-6.6,12.5-10.1c0.1-0.1,0.2-0.4,0-0.5c-0.1-0.1-0.2-0.1-0.3-0.1
		l-32.1,0c-0.9,0-1.6-0.7-1.6-1.6v-2.2c0-1.4,0.7-2.1,2.1-2.1l31.7,0c0.4,0,0.7-0.3,0.7-0.7c0-0.2-0.1-0.4-0.2-0.5l-13.7-11.1
		c-0.4-0.3-0.5-0.8-0.3-1.2c0.7-1.7,1.8-2.9,3.4-3.6c0.3-0.1,0.6-0.1,0.9,0.1c6.6,4.3,12.4,10.5,18.8,15.4c0.5,0.4,1.5,1.1,2,1.5
		c0.2,0.2,0.5,0.2,0.7,0.2l11.2-0.1C1170.7,317.7,1169.1,316.6,1168.9,316.4z"/>
</g>
<g>
	<path class="st1" d="M1535,260.6c-7.4,0-14.1,0.8-21.2,2.7c-0.7,0.2-1.3,0.4-1.9,0.6c-2,0.7-6.4,2.4-8.4,3.7
		c-10.7,6.9-17.8,18.8-21,31c-1.2,4.7-2.6,9.1-3.1,14c-2.4,23.7-1.5,49.4,13,68.4c11.3,14.8,27.1,20.4,44.9,19.1
		c20.3-1.5,35.6-13.9,45.5-31c0.4-0.6,1.2-0.8,1.8-0.5c0.1,0.1,0.2,0.1,0.2,0.2l3,2.9c0.2,0.2,0.3,0.5,0.1,0.8
		c-10.2,20.7-27.3,33.7-52.3,37c-6.9,0.6-13.8,0.5-20.7-0.1c-16.4-2.7-31.8-11.8-43-24.7c-0.2-0.2-5.1-6.9-6.2-8.9
		c-4.3-7.6-9.1-21.4-9.7-26.5c-1.6-11.8-1.7-22.4-0.3-31.7c3.9-27.5,23.7-56.1,51-64.6c20.8-6.5,68.5-2.3,75.5,24.3
		c1.8,6.6,1.1,16.7,1.6,24.3c0,0.3-0.1,0.5-0.4,0.5l-3.9,0c-0.3,0-0.6-0.2-0.7-0.5c-0.5-2.1-2.3-8-2.4-8.3
		C1571.4,273.5,1556.4,259.6,1535,260.6L1535,260.6z"/>
	<path class="st1" d="M290.1,328.2c-7.1-4.3-17.6-12.2-21.4-20.5c-8.1-17.5-3.8-39.3,12.9-49.9c16.7-10.7,42.9-8,60.1-0.3
		c7.5,3.4,16.3,10.5,16.3,19.7c0,8.2,0,16.3,0,24.5c0,0.5-0.2,0.7-0.7,0.7l-3.2-0.2c-0.3,0-0.6-0.3-0.6-0.6c0,0-2-7.2-2-7.3
		c0,0-2.7-8.1-2.7-8.2c-5.3-17-18.4-24.8-35.5-25.5c-3.7-0.1-9.4,0.7-13.4,1.4c-3.1,0.6-6.1,1.8-8.6,3.7l0,0l-0.3,0.2
		c-1.8,2-3.1,3.3-4.3,5.2c-10,16.2,0.8,28.8,14.3,37c12.8,7.8,25.6,15.4,38.5,22.9c10,5.8,20.1,13.8,23.5,25c0.1,0.4,0.5,1.7,0.5,2
		c2.4,12.7,0.2,23.9-6.5,33.6c-13.2,18.8-38.9,18.7-59.1,15.4c-11.1-1.9-29.1-9.4-32.2-21c-0.5-1.7-0.7-4.4-0.7-8
		c0-6.5,0-13.2,0.2-20.1c0-0.5,0.4-0.9,0.9-0.9h3.1c0.4,0,0.6,0.3,0.6,0.6c0,0,1.9,6.5,1.9,6.7c4.1,24.3,22.8,36.9,46.5,35.3
		c12.9-0.9,25.7-8.5,26-22.9c0.2-7.8-2.7-14.4-8.8-19.8C322.3,345.4,305.2,337.3,290.1,328.2z"/>
	<path class="st1" d="M493.3,362.3c-0.1-0.3-0.4-0.5-0.7-0.5c-18.5,0-37.1,0-55.7,0c-2,0-4.2-0.5-6.7,0.3c-0.3,0.1-0.5,0.3-0.6,0.6
		c-5.7,14.1-12.4,28.2-17,42.7c-0.1,0.3-0.3,0.4-0.6,0.4l-10.5,0.1c-0.4,0-0.6-0.2-0.5-0.6c0,0,1.8-3.6,1.9-3.9
		c20.3-48.3,40.7-96.4,61.3-144.6c0.4-1,1.2-1.7,2.3-2.1c3.2-1,5.5,0,6.7,3.1c11.5,28,23,55.9,34.6,83.9c4,9.8,10.5,26.2,16.5,39.8
		c4.2,9.6,10.6,17.8,21.8,18.9c0.6,0.1,1.1,0.6,1.1,1.3c0,0,0,0.1,0,0.1l-0.8,3.3c-0.1,0.3-0.3,0.5-0.6,0.7
		c-0.8,0.3-1.6,0.5-2.4,0.6c-11.3,1.1-21.1-1.5-29.3-7.8c-9.7-7.4-14.9-21.3-19.5-32.5C494.3,364.7,493.6,363.7,493.3,362.3z
		 M433.6,352.4c-0.1,0.2,0,0.3,0.2,0.4c0,0,0.1,0,0.1,0l54.5,0.5c0.2,0,0.3-0.1,0.3-0.3c0,0,0-0.1,0-0.1L462,288
		c-0.1-0.2-0.2-0.2-0.4-0.2c-0.1,0-0.1,0.1-0.2,0.2L433.6,352.4z"/>
	<path class="st1" d="M566.5,259.2c-0.5,0-0.7-0.3-0.7-0.8v-2.9c0-0.3,0.3-0.6,0.6-0.6c7.8-0.4,15.7-0.2,23.4,0.5
		c3.2,0.3,6.1,1.5,9,2.8c2.4,1,4.6,2.4,6.6,4.1c1.5,1.3,2.9,2.7,4,3.8c0.2,0.2,2.2,2.5,2.4,2.8l78.3,97.3c0.3,0.4,0.4,0.3,0.4-0.2
		V255.2c0-0.3,0.2-0.5,0.5-0.5h8.8c0.3,0,0.5,0.2,0.5,0.5v151.4c0,0.4-0.3,0.7-0.7,0.6l-4.7-0.2c-0.4-0.1-0.7-0.3-0.9-0.7
		c0,0-6.2-8.5-7.8-10.3c-0.2-0.2-6.4-7.8-7-8.7c-29.2-36.4-47.6-59.3-55.2-68.8c-0.6-0.7-7.9-9.5-9-11c-5.4-6.9-10.9-13.8-16.2-20.5
		c-0.1-0.2-0.4-0.2-0.5-0.1c-0.1,0.1-0.1,0.2-0.1,0.3v117.2c0,0.7-0.6,1.2-1.2,1.2h-7.5c-0.8,0-1.2-0.4-1.2-1.2
		c-0.1-42,0-82.6,0.3-121.8c0-3.5-0.5-7.8-1.7-12.7c-1-4.2-3.3-5.9-3.3-5.9c-0.2-0.3-1.2-1.1-1.5-1.3c-4.2-2-7.1-2.8-11.7-3.2
		C569.7,259.3,566.5,259.2,566.5,259.2z"/>
	<path class="st1" d="M798.8,264.6c0,0-2.8,0-3.7,0c-10,0.3-19.7-0.2-29.4,1.6c-0.4,0.1-0.8,0.2-1.2,0.3l-2.8,0.8
		c-2.7,0.7-5,2.4-6.5,4.6l0,0c-0.9,1.2-1.5,2.6-1.8,4.1l-1.5,7c-0.1,0.8-0.2,1.4-0.3,2.1l-0.3,4.6c0,0.3-0.3,0.6-0.6,0.6h-3.3
		c-0.3,0-0.5-0.2-0.5-0.5c0-8-0.6-16.4,0.7-24.3c0.3-1.8,1.1-3.6,2.2-5.1l0-0.1c0.8-1,1.7-1.9,2.7-2.6l0.2-0.1c1.4-1,3-1.7,4.7-1.9
		c3.5-0.6,6.4-0.9,8.9-0.9c34.9,0,69.9,0,104.8,0c0.3,0,0.6,0.2,0.6,0.5c0,0,0,0,0,0l-0.2,8.9c0,0.4-0.2,0.5-0.6,0.5l-48.3,0
		c0,0-1.3,0-1.3,0c-0.1,0-0.2,0-0.1,0.1l0,139.6c0,0.7-0.6,1.2-1.2,1.2l0,0l-19,0.1c-0.4,0-0.8-0.3-0.8-0.8v0V265
		C800,264.5,798.8,264.6,798.8,264.6z"/>
	<path class="st1" d="M1631.8,259.6l-8.8-0.5c-0.4,0-0.6-0.3-0.7-0.7l-0.2-2.9c0-0.4,0.2-0.7,0.6-0.7c11-0.2,22.4-0.7,33.2,1.3
		c5.3,1.5,7.2,5.2,7.8,19.2c0,40.1,0,80.1,0,120.2c0,0.3,0.2,0.5,0.5,0.5h79.9c0.4,0,0.6,0.2,0.6,0.6l-0.1,8.5
		c0,0.4-0.2,0.6-0.6,0.6h-100.8c-0.3,0-0.5-0.2-0.5-0.5c0,0,0,0,0,0c0-42.3,0-84.8,0-127.2c0-2.6-0.3-9.3-0.3-9.3
		C1641.8,261.9,1638,259.6,1631.8,259.6z"/>
	<path class="st1" d="M1949.3,259.5l-9.5-0.3c-0.4,0-0.6-0.2-0.6-0.6v-3.1c0-0.4,0.2-0.5,0.5-0.5c32.5-0.5,56.4-0.4,71.7,0.2
		c5,0.2,11.1,1.7,18.3,4.4c9.7,3.6,19.9,11.5,23.2,21.7c8.4,25.8-5.2,48-31.9,52.5c-0.8,0.1-1.3,0.9-1.2,1.6c0,0.2,0.1,0.3,0.2,0.5
		c6.5,11.5,13.3,23.1,20.2,34.7c7.2,12.1,17.4,28.4,32.8,29.7c0.4,0,0.6,0.2,0.6,0.6v4.3c0,0.3-0.1,0.5-0.4,0.6
		c-9.2,2.2-20.7,2.8-29.3-1.8c-14.1-7.6-22.8-25.2-31.1-39.2c-5.5-9.4-11.1-18.8-16.6-28.2c-0.2-0.3-0.5-0.5-0.9-0.5l-14.8-0.1
		c-0.4,0-0.6,0.2-0.6,0.6v67.6c0,1-0.5,1.5-1.5,1.5h-17.2c-0.8,0-1.3-0.4-1.3-1.3c0-41.8,0-83.4,0-125c0-1.8-0.2-6.8-0.2-6.8
		C1959.7,259.6,1959.7,259.6,1949.3,259.5z M1980.4,263.4c-0.2,0-0.4,0.2-0.4,0.5v64c0,0.4,0.2,0.6,0.5,0.6c0,0,6.8,0.1,6.9,0.2
		c10.8,0.5,20.6-1.4,29.6-6.8c20.7-12.4,20.2-40.1-0.1-52.8c-9.1-5.7-20.2-5.5-30.4-5.7C1986.5,263.3,1980.4,263.4,1980.4,263.4z"/>
	<path class="st1" d="M619.9,515.6c-5.1-9-3.1-21.6,5.3-28.3c8.2-6.6,17.6-7.2,28-1.7c4.5,2.3,1.5,7.6-2.6,6.2c-1.6-0.5-3-2.5-4.5-3
		c-24.4-8.2-31,32.2-5.8,33c5.4,0.2,8.1-2.8,11.6-5.3c0.3-0.2,0.7-0.2,1,0l2.7,1.7c0.3,0.2,0.4,0.5,0.4,0.8
		c-0.1,2.1-0.9,3.6-2.5,4.6C641.2,531.2,627,528.2,619.9,515.6z"/>
	<path class="st1" d="M827.4,507.2c-0.2,11.4-9.6,20.5-21,20.3l-4.2-0.1c-11.4-0.2-20.5-9.6-20.3-21l0.1-4.1
		c0.2-11.4,9.6-20.5,21-20.3l4.2,0.1c11.4,0.2,20.5,9.6,20.3,21L827.4,507.2z M804.1,521.9c9,0.4,16.7-6.9,17.1-16.4
		c0.4-9.5-6.5-17.5-15.6-17.9c-9-0.4-16.7,6.9-17.1,16.4C788.1,513.4,795.1,521.4,804.1,521.9z"/>
	<path class="st1" d="M1757.9,507.2h-8.8c-0.4,0-0.6-0.2-0.6-0.6v-3.4c0-0.5,0.2-0.8,0.8-0.8h14c0.5,0,0.8,0.2,0.8,0.8v20.2
		c0,0.4-0.2,0.7-0.6,0.8l-3.8,1.1c-0.2,0.1-0.4,0.1-0.7,0.2c-12.8,2.3-25.3,2.4-31.8-10.1c-9.1-17.7,5.9-36.8,25.4-33.2
		c3.6,0.7,7.1,1.9,10.4,3.8c1.3,0.7,1,0.9,0.8,1.3l-1.6,3.3c-0.1,0.3-0.3,0.4-0.5,0.3c-1.5-0.5-5.9-2-6.2-2.1
		c-32.9-9.8-31,44.4,3,30.6c0.3-0.1,0.4-0.4,0.4-0.7l-0.2-11.3C1758.6,507.4,1758.4,507.2,1757.9,507.2z"/>
	<path class="st1" d="M974.9,525.4c-0.1,0.3-0.4,0.6-0.7,0.7c-1.7,0.6-3.5,0.7-5.3,0.4c-0.3-0.1-0.5-0.2-0.7-0.5
		c-3.9-8.5-15.7-38.8-16.1-42.1c0-0.3,0.1-0.5,0.5-0.6l5.3-0.4c0.3,0,0.6,0.1,0.7,0.4c0.7,1.3,11.7,31.3,12.6,33.6
		c0.1,0.4,0.6,0.6,1,0.4c0.2-0.1,0.4-0.3,0.5-0.5l11.5-32.4c0.1-0.4,0.4-0.7,0.8-0.7l5.7-0.1c0.3,0,0.5,0.2,0.5,0.5c0,0,0,0.1,0,0.1
		L974.9,525.4z"/>
	<path class="st1" d="M1263.8,520.8h17.7c0.3,0,0.5,0.2,0.5,0.5c0,0,0,0,0,0l-0.2,4.9c0,0.3-0.3,0.5-0.5,0.5l-24.2,0.1
		c-0.3,0-0.5-0.2-0.5-0.5l0,0v-42.6c0-0.3,0.3-0.5,0.5-0.5c0,0,0,0,0,0l5.7,0.4c0.3,0,0.5,0.3,0.5,0.5v36
		C1263.2,520.5,1263.5,520.8,1263.8,520.8L1263.8,520.8z"/>
	<path class="st1" d="M1581.5,483.2c0.3,0,0.5,0.1,0.6,0.3c0.5,0.8,0.9,1.6,1.3,2.4c5.8,13.3,11.6,26.6,17.5,39.9
		c0.1,0.3,0,0.6-0.3,0.7c-0.1,0-0.1,0-0.2,0l-5.9,0.1c-0.3,0-0.5-0.1-0.7-0.4l-4.1-9.6c-0.1-0.3-0.4-0.5-0.8-0.5h-19.7
		c-0.4,0-0.6,0.2-0.7,0.6l-4.1,9.5c-0.2,0.3-0.6,0.5-1,0.5l-5.2,0c-0.2,0-0.4-0.2-0.4-0.4c0-0.1,0-0.1,0-0.2
		c5.6-13,11.2-26,16.8-38.9c0.6-1.4,1.8-3.6,1.8-3.6c0.1-0.2,0.2-0.3,0.4-0.3C1577,483.3,1581.4,483.2,1581.5,483.2z M1571.9,509.7
		c-0.1,0.2,0,0.5,0.3,0.6c0.1,0,0.1,0,0.2,0l14.2-0.2c0.2,0,0.4-0.2,0.4-0.5c0-0.1,0-0.1,0-0.2l-7.3-17.5c-0.1-0.2-0.4-0.3-0.6-0.2
		c-0.1,0-0.2,0.1-0.2,0.2L1571.9,509.7z"/>
	<path class="st1" d="M467.8,520.8h21.1c0.3,0,0.6,0.2,0.6,0.6c0,0,0,0,0,0.1l-0.6,5c0,0.3-0.3,0.5-0.6,0.5l-27-0.1
		c-0.3,0-0.6-0.3-0.6-0.6V484c0-0.3,0.3-0.6,0.6-0.6l26.9,0c0.3,0,0.6,0.3,0.6,0.6l0,4.1c0,0.3-0.3,0.6-0.6,0.6h-20.4
		c-0.3,0-0.6,0.3-0.6,0.6l0.1,11.9c0,0.3,0.3,0.6,0.6,0.6h19.6c0.3,0,0.6,0.3,0.6,0.6l0,3.9c0,0.3-0.3,0.6-0.6,0.6h-19.6
		c-0.3,0-0.6,0.3-0.6,0.6v12.9C467.2,520.5,467.5,520.8,467.8,520.8z"/>
	<path class="st1" d="M1118.8,483.4h5.3c0.3,0,0.6,0.3,0.6,0.6v42.2c0,0.3-0.3,0.6-0.6,0.6h-5.3c-0.3,0-0.6-0.3-0.6-0.6V484
		C1118.2,483.6,1118.5,483.4,1118.8,483.4z"/>
	<path class="st1" d="M1416,484.1v36.1c0,0.3,0.2,0.5,0.5,0.5l0,0h18.7c0.3,0,0.5,0.2,0.5,0.5l0,0v5c0,0.3-0.2,0.5-0.5,0.5l0,0
		l-25.2,0c-0.3,0-0.5-0.2-0.5-0.5l0,0v-42.5c0-0.3,0.2-0.5,0.5-0.5c0,0,0,0,0,0l5.4,0.3C1415.8,483.6,1416,483.8,1416,484.1z"/>
	<path class="st1" d="M1902.7,520.7l22.4,0c0.2,0,0.4,0.2,0.4,0.4v5.1c0,0.2-0.2,0.4-0.4,0.4h-27.8c-0.2,0-0.4-0.2-0.4-0.4
		l-0.1-42.1c0-0.2,0.2-0.4,0.4-0.4c0,0,0,0,0,0l27.1-0.1c0.2,0,0.4,0.2,0.4,0.4v4.2c0,0.2-0.2,0.4-0.4,0.4l-21.6,0.1
		c-0.2,0-0.4,0.2-0.4,0.4v12.1c0,0.2,0.2,0.4,0.4,0.4h19.6c0.2,0,0.4,0.2,0.4,0.4v4.1c0,0.2-0.2,0.4-0.4,0.4l-19.6,0.1
		c-0.2,0-0.4,0.2-0.4,0.4v13C1902.2,520.5,1902.4,520.7,1902.7,520.7z"/>
	<path class="st1" d="M977.2,362.4c-0.1-0.3-0.4-0.5-0.7-0.5c-18.5,0-37.1,0-55.7,0c-2,0-4.2-0.5-6.7,0.3c-0.3,0.1-0.5,0.3-0.6,0.6
		c-5.7,14.1-12.4,28.2-17,42.7c-0.1,0.3-0.3,0.4-0.6,0.4l-10.5,0.1c-0.4,0-0.6-0.2-0.5-0.6c0,0,1.8-3.6,1.9-3.9
		c20.3-48.3,40.7-96.4,61.3-144.6c0.4-1,1.2-1.7,2.3-2c3.2-1,5.5,0,6.7,3.1c11.5,28,23,55.9,34.6,83.9c4,9.8,10.5,26.2,16.5,39.8
		c4.2,9.6,10.6,17.8,21.8,18.9c0.6,0.1,1.1,0.6,1.1,1.3c0,0,0,0.1,0,0.1l-0.8,3.3c-0.1,0.3-0.3,0.5-0.6,0.7
		c-0.8,0.3-1.6,0.5-2.4,0.6c-11.3,1.1-21.1-1.5-29.3-7.8c-9.7-7.4-14.9-21.3-19.5-32.5C978.3,364.8,977.6,363.8,977.2,362.4z
		 M917.6,352.4c-0.1,0.2,0,0.3,0.2,0.4c0,0,0.1,0,0.1,0l54.5,0.5c0.2,0,0.3-0.1,0.3-0.3c0,0,0-0.1,0-0.1l-26.7-64.8
		c-0.1-0.2-0.2-0.2-0.4-0.2c-0.1,0-0.1,0.1-0.2,0.2L917.6,352.4z"/>
	<path class="st1" d="M1865.5,362.2c-0.1-0.3-0.4-0.5-0.7-0.5c-18.5,0-37.1,0-55.7,0c-2,0-4.2-0.5-6.7,0.3c-0.3,0.1-0.5,0.3-0.6,0.6
		c-5.7,14.1-12.4,28.2-17,42.7c-0.1,0.3-0.3,0.4-0.6,0.4l-10.5,0.1c-0.4,0-0.6-0.2-0.5-0.6c0,0,1.8-3.6,1.9-3.9
		c20.3-48.3,40.7-96.4,61.3-144.6c0.4-1,1.2-1.7,2.3-2c3.2-1,5.5,0,6.7,3.1c11.5,28,23,55.9,34.6,83.9c4,9.8,10.5,26.2,16.4,39.8
		c4.2,9.6,10.6,17.8,21.8,18.9c0.6,0.1,1.1,0.6,1.1,1.3c0,0,0,0.1,0,0.1l-0.8,3.3c-0.1,0.3-0.3,0.5-0.6,0.7
		c-0.8,0.3-1.6,0.5-2.4,0.6c-11.3,1.1-21.1-1.5-29.3-7.8c-9.7-7.4-14.9-21.3-19.5-32.5C1866.5,364.7,1865.8,363.6,1865.5,362.2z
		 M1805.8,352.3c-0.1,0.2,0,0.3,0.2,0.4c0,0,0.1,0,0.1,0l54.5,0.5c0.2,0,0.3-0.1,0.3-0.3c0,0,0-0.1,0-0.1l-26.7-64.8
		c-0.1-0.2-0.2-0.2-0.4-0.2c-0.1,0-0.1,0.1-0.2,0.2L1805.8,352.3z"/>
	<path class="st1" d="M2190.4,362c-0.1-0.3-0.4-0.5-0.7-0.5c-18.5,0-37.1,0-55.7,0c-2,0-4.2-0.5-6.7,0.3c-0.3,0.1-0.5,0.3-0.7,0.6
		c-5.7,14.1-12.4,28.2-17,42.7c-0.1,0.3-0.3,0.4-0.6,0.4l-10.5,0.1c-0.4,0-0.6-0.2-0.5-0.6c0,0,1.8-3.6,1.9-3.9
		c20.3-48.3,40.7-96.4,61.3-144.6c0.4-1,1.2-1.7,2.3-2.1c3.2-1,5.5,0,6.7,3.1c11.5,28,23,55.9,34.6,83.9c4,9.8,10.5,26.2,16.5,39.8
		c4.2,9.6,10.6,17.8,21.8,18.9c0.6,0.1,1.1,0.6,1.1,1.3c0,0,0,0.1,0,0.1l-0.8,3.3c-0.1,0.3-0.3,0.5-0.6,0.7
		c-0.8,0.3-1.6,0.5-2.4,0.6c-11.3,1.1-21.1-1.5-29.3-7.8c-9.7-7.4-14.9-21.3-19.5-32.5C2191.5,364.4,2190.8,363.4,2190.4,362z
		 M2130.7,352c-0.1,0.2,0,0.3,0.2,0.4c0,0,0.1,0,0.1,0l54.5,0.5c0.2,0,0.3-0.1,0.3-0.3c0,0,0-0.1,0-0.1l-26.7-64.8
		c-0.1-0.2-0.2-0.2-0.4-0.2c-0.1,0-0.1,0.1-0.2,0.2L2130.7,352z"/>
</g>
</svg>
