<?xml version="1.0" encoding="UTF-8"?>
<svg id="Capa_2" data-name="Capa 2" xmlns="http://www.w3.org/2000/svg" viewBox="0 0 33.49 33.49">
  <defs>
    <style>
      .cls-1 {
        fill: #95785e;
        stroke-width: 0px;
      }

      .cls-2 {
        fill: none;
        stroke: #95785e;
        stroke-miterlimit: 10;
        stroke-width: .5px;
      }
    </style>
  </defs>
  <g id="Capa_1-2" data-name="Capa 1">
    <g>
      <path class="cls-1" d="m26.9,19.65c-.15-.23-.37-.41-.6-.5l-1.57-.58c.31-.21.53-.47.68-.77.26-.53.29-1.18.27-1.94.09-.06.17-.14.23-.23.15-.22.19-.5.19-.94h0s-.05-3.47-.05-3.47c-1.93-.64-3.86-1.27-5.79-1.91l-15.38,3.9c-.17.03-.29.1-.37.19-.07.08-.1.17-.11.26,0,.09.02.17.06.25.02.04.05.07.08.11l3.4,4.23c.15,1.1.61,2.1,1.23,2.83.66.77,1.5,1.24,2.37,1.24.02,0,0,0,.05,0,.22,0,.44-.04.64-.1h0s7.45-2.09,7.45-2.09v.89s0,0,0,0c0,.28.05.53.13.75.15.44.43.76.8.97.36.21.79.3,1.27.29.28,0,.58-.05.89-.13l3.34,1.24c.1.04.2.06.3.06.15,0,.3-.05.41-.13.11-.08.2-.2.26-.35.04-.1.06-.22.06-.34v-2.97c0-.26-.09-.54-.24-.76Zm-6.66-9.8l5.29,1.75.04,3.09c0,.34-.02.54-.1.65-.07.1-.21.16-.47.24h0s-11.92,3.23-11.92,3.23l-2.75-3.33-5.26-1.79,15.17-3.84Zm-9.97,9.3c.07.18.23.35.42.48.18.12.39.21.58.21.04,0,.08,0,.12,0,.3-.04.54-.21.72-.47.12-.17.2-.39.24-.63l.3.37c-.08.37-.23.69-.44.92-.22.23-.5.37-.82.37-.43,0-.86-.25-1.2-.65-.36-.42-.61-.99-.69-1.63-.06-.5,0-.96.15-1.33.12-.3.3-.54.53-.7l1.95,2.36c0,.3-.09.57-.22.77-.13.2-.31.33-.53.35-.03,0-.06,0-.09,0-.14,0-.3-.06-.43-.16-.15-.1-.27-.23-.32-.37-.03-.07-.1-.1-.17-.07-.07.03-.1.1-.07.17Zm-2.27-2.64c-.05.27-.09.55-.09.84l-2.36-2.94,2.85.97c-.18.33-.32.71-.4,1.13Zm3.59,5.29s.01,0-.04,0c-.71,0-1.41-.4-1.97-1.06-.57-.67-.99-1.6-1.12-2.63-.07-.54-.05-1.04.05-1.5.08-.4.21-.75.39-1.06l.87.3c-.23.2-.41.46-.54.78-.18.44-.25.97-.18,1.54.09.72.38,1.38.79,1.85.42.49.96.79,1.52.79.44,0,.83-.19,1.13-.51.22-.24.4-.56.5-.93l.76-.21c-.05.74-.27,1.37-.63,1.82-.39.5-.92.79-1.54.8Zm1.95-.48h0c.45-.57.72-1.37.75-2.29l10.85-2.94h0s.02,0,.02,0c.01.6-.03,1.1-.22,1.49-.19.38-.54.67-1.16.87l-.31.09s-.02,0-.03,0h0s-9.89,2.78-9.89,2.78Zm8.72-1.91v1.77c-.18.04-.34.06-.47.04-.22-.03-.36-.19-.36-.62v-.95s.84-.24.84-.24Zm4.35,3.98c0,.06,0,.12-.03.16-.02.05-.04.08-.07.11-.03.02-.06.03-.11.03-.04,0-.08,0-.12-.02l-2.7-1,1.42-.44c.14-.04.22-.19.17-.33-.04-.14-.19-.22-.33-.17l-1.91.59h-.01c-.38.14-.74.21-1.07.21-.38,0-.73-.06-1-.22-.26-.15-.46-.38-.57-.7-.06-.17-.1-.37-.1-.59v-1.03s.7-.19.7-.19v.81c0,.77.33,1.08.83,1.13.41.05.93-.11,1.48-.29l1.53-.47c.14-.04.22-.19.17-.33-.04-.14-.19-.22-.33-.17l-1.53.47h0c-.09.03-.18.06-.26.09v-1.77l.8-.22c.12-.03.24-.06.35-.1l.09-.02h0s.04-.02.06-.03l2.02.75c.13.05.26.16.35.3.1.14.15.31.15.47v2.97Z"/>
      <circle class="cls-2" cx="16.75" cy="16.75" r="16.5"/>
    </g>
  </g>
</svg>