<?xml version="1.0" encoding="UTF-8"?>
<svg id="Capa_2" data-name="Capa 2" xmlns="http://www.w3.org/2000/svg" viewBox="0 0 33.49 33.49">
  <defs>
    <style>
      .cls-1 {
        fill: #95785e;
        stroke-width: 0px;
      }

      .cls-2 {
        fill: none;
        stroke: #95785e;
        stroke-miterlimit: 10;
        stroke-width: .5px;
      }
    </style>
  </defs>
  <g id="Capa_1-2" data-name="Capa 1">
    <g>
      <g>
        <path class="cls-1" d="m24.64,11.04c-2.33,0-4.43-1.6-5.1-3.9-.05-.17-.2-.29-.38-.29h-4.84c-.18,0-.33.12-.38.29-.67,2.29-2.76,3.9-5.09,3.9-.22,0-.4.18-.4.4v4.58c0,4.86,3.25,9.22,7.9,10.61.04.01.08.02.12.02.04,0,.07,0,.11-.01l.35-.1c4.77-1.33,8.1-5.71,8.1-10.67v-4.43c0-.22-.18-.4-.4-.4Zm-.4,4.82c0,4.6-3.09,8.67-7.52,9.9l-.25.07c-4.26-1.32-7.23-5.35-7.23-9.82v-4.2c2.42-.16,4.56-1.82,5.37-4.17h4.26c.81,2.35,2.95,4,5.37,4.17v4.04Z"/>
        <path class="cls-1" d="m13,16.51c-.15-.15-.4-.15-.56,0-.15.15-.15.4,0,.56l2.66,2.66c.07.07.17.12.28.12s.21-.04.28-.12l5.4-5.4c.15-.15.15-.4,0-.56s-.4-.15-.56,0l-5.12,5.12-2.38-2.38Z"/>
      </g>
      <circle class="cls-2" cx="16.75" cy="16.75" r="16.5"/>
    </g>
  </g>
</svg>