<?xml version="1.0" encoding="UTF-8"?>
<svg id="Capa_2" data-name="Capa 2" xmlns="http://www.w3.org/2000/svg" viewBox="0 0 33.49 33.49">
  <defs>
    <style>
      .cls-1 {
        fill: #95785e;
        stroke-width: 0px;
      }

      .cls-2 {
        fill: none;
        stroke: #95785e;
        stroke-miterlimit: 10;
        stroke-width: .5px;
      }
    </style>
  </defs>
  <g id="Capa_1-2" data-name="Capa 1">
    <g>
      <g>
        <path class="cls-1" d="m19.14,16.69h-.09v-.24c2.19,0,3.27-1.05,3.33-1.08.06-.06.09-.18.09-.27-.03-.09-.09-.18-.18-.21-.93-.39-1.38-1.98-1.41-2.16.15-.45.21-.9.21-1.38,0-.96-.33-1.92-.9-2.67v-2.85c0-.18-.12-.3-.3-.3h-6.35c-.18,0-.3.12-.3.3v2.85c-.6.78-.9,1.71-.9,2.67,0,.51.09.99.24,1.47-.15.54-.63,1.74-1.38,2.07-.09.03-.15.12-.18.21s0,.21.09.27c.06.06,1.14,1.08,3.33,1.08v.24h-.09c-2.97,0-5.45,2.88-5.45,6.29v4.68c0,.18.12.3.3.3h15.11c.18,0,.3-.12.3-.3v-4.68c0-3.42-2.49-6.29-5.45-6.29Zm2.49-1.53c-.42.27-1.29.66-2.58.66v-.81c.6-.39,1.11-.9,1.47-1.53.21.57.57,1.26,1.11,1.68Zm-7.79-9.05h5.75v1.2h-5.75v-1.2Zm0,1.8h5.75v.48h-5.75v-.48Zm-.09,1.08h3.96c-1.65,1.2-3.96,1.74-4.77,1.92.09-.72.39-1.38.81-1.92Zm.66,6.86c-1.26-.03-2.13-.42-2.58-.69.54-.42.9-1.08,1.11-1.59.36.6.87,1.11,1.47,1.5v.78Zm-1.5-4.35c.75-.15,3.87-.81,5.72-2.52h1.02c.57.66.84,1.5.84,2.34,0,1.65-1.05,3.09-2.61,3.6-1.26.33-2.37,0-2.37,0-1.5-.51-2.52-1.86-2.61-3.42Zm5.54,3.84v1.47l-.06.03c-1.02.63-2.28.63-3.33,0l-.06-.03v-1.44c.12.06.24.09.33.12.03,0,.57.18,1.38.18.39,0,.87-.03,1.35-.18h.03c.12-.03.24-.09.36-.15Zm5.54,12.02h-14.51v-4.38c0-3.03,2.28-5.69,4.86-5.69h.27l.15.09c.6.36,1.29.54,1.95.54s1.38-.18,1.98-.54l.12-.09h.3c2.61,0,4.89,2.67,4.89,5.69v4.38Z"/>
        <path class="cls-1" d="m15.43,22.35c-.22,0-.39.17-.39.39s.17.39.39.39.39-.17.39-.39-.17-.39-.39-.39Z"/>
        <path class="cls-1" d="m18.07,22.35c-.22,0-.39.17-.39.39s.17.39.39.39.39-.17.39-.39-.17-.39-.39-.39Z"/>
        <path class="cls-1" d="m15.43,20.13c-.22,0-.39.17-.39.39,0,.04.01.07.02.11.05.16.19.28.37.28s.32-.12.37-.28c0-.03.02-.07.02-.11,0-.22-.17-.39-.39-.39Z"/>
        <path class="cls-1" d="m18.07,20.13c-.22,0-.39.17-.39.39,0,.04.01.07.02.11.05.16.19.28.37.28s.32-.12.37-.28c0-.03.02-.07.02-.11,0-.22-.17-.39-.39-.39Z"/>
        <path class="cls-1" d="m15.43,24.33c-.22,0-.39.17-.39.39s.17.39.39.39.39-.17.39-.39-.17-.39-.39-.39Z"/>
        <path class="cls-1" d="m18.07,24.33c-.22,0-.39.17-.39.39s.17.39.39.39.39-.17.39-.39-.17-.39-.39-.39Z"/>
      </g>
      <circle class="cls-2" cx="16.75" cy="16.75" r="16.5"/>
    </g>
  </g>
</svg>