<?xml version="1.0" encoding="UTF-8"?>
<svg id="Capa_2" data-name="Capa 2" xmlns="http://www.w3.org/2000/svg" viewBox="0 0 33.49 33.49">
  <defs>
    <style>
      .cls-1 {
        fill: #95785e;
        stroke-width: 0px;
      }

      .cls-2 {
        fill: none;
        stroke: #95785e;
        stroke-miterlimit: 10;
        stroke-width: .5px;
      }
    </style>
  </defs>
  <g id="Capa_1-2" data-name="Capa 1">
    <g>
      <path class="cls-1" d="m9.58,21.05c.25.57.88.89,1.21,1.03.25,1.03.9,1.19,1.28,1.19.13,0,.25-.02.35-.04.36.8.86.98,1.24.98h0c.19,0,.37-.05.5-.11.22.25.62.58,1.2.66.06,0,.12.01.17.01.35,0,.57-.15.69-.27.16-.17.23-.38.26-.54l.8.56h.02c.07.06.57.35,1.11.35.16,0,.32-.03.48-.09.19-.08.42-.25.57-.59.31.02.77-.02,1.17-.29.3-.21.5-.51.61-.9.3-.03.76-.12,1.12-.45.27-.24.43-.56.5-.96.32,0,.77-.08,1.12-.39.33-.3.48-.73.46-1.29l3.95-1.98c.15-.08.23-.25.19-.41l-2.22-6.11c-.02-.1-.09-.18-.17-.22-.09-.05-.19-.06-.28-.03l-4.09,1.61c-.69-.39-3.32-1.84-4.15-1.98-.14-.02-.28-.03-.43-.03-.72,0-1.4.25-1.59.33-.42.05-2.66.34-4.17,1.1-1.31-.68-2.36-1.46-2.37-1.46-.08-.06-.18-.08-.28-.07-.1.02-.18.07-.24.16l-3.59,5.46c-.11.16-.07.38.09.49l4.53,3.24c-.16.36-.16.73-.02,1.06Zm1.16.2c-.21-.12-.42-.29-.5-.49-.07-.16-.06-.32.03-.52.22-.47.49-.76.72-.76.14,0,.3.1.47.28-.27.34-.63.88-.72,1.49Zm1.52,1.27c-.06.01-.12.03-.19.03-.12,0-.48,0-.62-.8h0c-.1-.54.23-1.1.51-1.46l.25-.23c.16-.15.49-.38.73-.38.21,0,.31.27.37.55-.31.36-1.04,1.34-1.05,2.29Zm1.6.92c-.06.02-.13.04-.2.04-.32,0-.54-.4-.67-.77h0c-.13-.71.59-1.71.92-2.09.06-.03.17-.07.3-.07.22,0,.4.12.56.35-.15.08-.3.19-.42.34-.42.5-.61,1.36-.5,2.19Zm1.95.27v.02c0,.06-.03.19-.09.26-.01.01-.06.05-.17.05-.03,0-.06,0-.08,0-.49-.06-.78-.44-.86-.55-.12-.66.02-1.41.32-1.78.12-.14.25-.21.39-.21.05,0,.42.04.61.68l-.13,1.52v.02Zm.03-11.95s.02,0,.02,0c0,0,.68-.29,1.35-.29.11,0,.22,0,.32.02.59.1,2.74,1.23,4.05,1.97.09.05.19.06.29.03l3.88-1.54,2.05,5.46-3.82,1.91-2.69-2.69s-.09-.07-.15-.09c-.03,0-2.67-.82-3.06-2.88-.03-.17-.18-.29-.35-.29-.01,0-.03,0-.04,0l-1.29.14c-.07,0-.14.04-.2.09-.32.28-1.31,1.02-2.05,1.02-.24,0-.43-.08-.58-.24-.03-.06-.12-.43.54-1.12,1.21-1.27,1.73-1.49,1.73-1.49Zm-10.07,4.6l3.2-4.86c.44.31,1.31.88,2.33,1.39.11.05.23.05.33,0,.78-.42,1.86-.71,2.72-.88-.22.2-.47.45-.76.75-1.17,1.22-.66,1.97-.59,2.06.29.33.68.51,1.14.51,1.01,0,2.12-.85,2.44-1.12l.87-.1c.59,2.04,2.89,2.92,3.39,3.08l2.81,2.81s.04.02.06.04c0,.27-.08.48-.22.61-.21.19-.54.21-.75.2l-2.74-2.48c-.15-.13-.37-.12-.51.02-.13.15-.12.37.02.51l2.64,2.4c-.02.3-.11.54-.28.7-.23.21-.55.26-.74.27l-2.57-2.46c-.14-.14-.37-.13-.51.01-.14.14-.13.37.01.51l2.49,2.38c-.05.26-.16.46-.34.58-.17.12-.37.16-.55.16,0-.01-.01-.03-.02-.04l-2.24-2.12c-.14-.14-.37-.13-.51.01-.14.14-.13.37.01.51l1.96,1.86v.03c-.08.32-.21.38-.26.4-.28.12-.76-.1-.93-.19l-1.12-.79.09-1.01-.02-.06c-.21-.8-.7-1.13-1.07-1.24-.41-.85-1.01-.98-1.34-.98-.1,0-.18.01-.27.03-.24-.78-.73-.9-1.02-.9-.35,0-.69.18-.93.34-.33-.36-.67-.54-1.02-.54-.38,0-.73.21-1.03.6l-4.2-3Z"/>
      <circle class="cls-2" cx="16.75" cy="16.75" r="16.5"/>
    </g>
  </g>
</svg>