<?xml version="1.0" encoding="UTF-8"?>
<svg id="Capa_2" data-name="Capa 2" xmlns="http://www.w3.org/2000/svg" viewBox="0 0 33.49 33.49">
  <defs>
    <style>
      .cls-1 {
        fill: #95785e;
        stroke-width: 0px;
      }

      .cls-2 {
        fill: none;
        stroke: #95785e;
        stroke-miterlimit: 10;
        stroke-width: .5px;
      }
    </style>
  </defs>
  <g id="Capa_1-2" data-name="Capa 1">
    <g>
      <g>
        <path class="cls-1" d="m26.87,11.27h-1.65c-.16,0-.29.13-.29.29v3.45c0,.16.13.29.29.29h.5c-.09.47-.36.88-.78,1.12l-.2.12s-.1.06-.15.08v-.67h0v-6.75h0v-.42c0-.76-.53-1.43-1.26-1.59-4.4-.99-8.86-.99-13.27,0-.73.16-1.26.83-1.26,1.59v.41h0v6.75h0v.62c-.08-.05-.17-.1-.25-.15-.42-.24-.69-.66-.78-1.12h.49c.16,0,.29-.13.29-.29v-3.44c0-.16-.13-.29-.29-.29h-1.65c-.16,0-.29.13-.29.29v3.45c0,.16.13.29.29.29h.55c.09.68.49,1.29,1.09,1.63.15.09.31.18.46.27l.08.05v5.57c0,.68.41,1.26,1,1.51v1.83c0,.49.4.88.88.88h1.18c.49,0,.88-.4.88-.88v-1.7h7.88v1.7c0,.49.4.88.88.88h1.18c.49,0,.88-.4.88-.88v-1.83c.59-.25,1-.83,1-1.51v-5.52c.15-.08.29-.17.44-.25l.21-.12c.6-.35,1-.96,1.09-1.63h.55c.16,0,.29-.13.29-.29v-3.45c0-.16-.13-.29-.29-.29Zm-19.43,3.44s0,0-.01,0h-.52v-2.86h1.07v2.86h-.52s0,0-.01,0Zm6.3.28c.16,0,.29-.13.29-.29v-3.14c0-.16-.13-.29-.29-.29s-.29.13-.29.29v1.51l-1.52,3.17c-.84-.14-1.69-.3-2.53-.51v-6.29h0c2.33-.59,4.67-.88,7.01-.91v8.1c-1.29-.01-2.58-.11-3.87-.3l.91-1.9v.28c0,.16.13.29.29.29Zm-1.87,11.46h-1.18c-.16,0-.3-.13-.3-.3v-1.7h1.77v1.7h0c0,.16-.13.3-.3.3Zm10.83,0h-1.18c-.16,0-.3-.13-.3-.3v-1.7h1.77v1.7h0c0,.16-.13.3-.3.3Zm1.3-3.63c0,.29-.12.55-.31.74s-.45.31-.74.31h-12.51s-.05-.01-.08-.02c-.16-.01-.3-.06-.43-.14-.31-.18-.53-.51-.53-.89v-6.5c.61.15,1.21.28,1.82.39,1.22.23,2.43.38,3.65.45.61.04,1.22.06,1.83.06,2.44,0,4.88-.31,7.3-.9v6.5Zm-2.47-6.6l-1.52-3.16v-1.5c0-.16-.13-.29-.29-.29s-.29.13-.29.29v3.14c0,.16.13.29.29.29s.29-.13.29-.29v-.28l.91,1.89c-1.31.19-2.62.29-3.94.31v-8.1c2.34.02,4.68.32,7.01.91v6.29h0c-.82.21-1.64.36-2.47.5Zm2.47-7.39c-4.85-1.2-9.76-1.2-14.61,0v-.05h0c0-.49.34-.92.8-1.02,2.16-.48,4.33-.73,6.5-.73s4.35.24,6.5.73c.46.1.8.53.8,1.02v.05Zm2.58,5.88h-.52s0,0-.01,0,0,0-.01,0h-.52v-2.86h1.06v2.86Z"/>
        <path class="cls-1" d="m13.44,20.22v1.86c0,.16.13.29.29.29h5.93c.16,0,.29-.13.29-.29v-1.86c0-.16-.13-.29-.29-.29h-5.93c-.16,0-.29.13-.29.29Zm.59.29h5.35v.34h-5.35v-.34Zm0,.93h5.35v.34h-5.35v-.34Z"/>
        <path class="cls-1" d="m11.29,19.92c-.67,0-1.22.55-1.22,1.22,0,.67.55,1.22,1.22,1.22s1.22-.55,1.22-1.22-.55-1.22-1.22-1.22Zm0,1.86c-.35,0-.63-.28-.63-.64s.28-.63.63-.63.63.28.63.63-.28.64-.63.64Z"/>
        <path class="cls-1" d="m22.11,22.37c.67,0,1.22-.55,1.22-1.22s-.55-1.22-1.22-1.22-1.22.55-1.22,1.22.55,1.22,1.22,1.22Zm0-1.86c.35,0,.63.28.63.63s-.28.64-.63.64-.63-.28-.63-.64.28-.63.63-.63Z"/>
      </g>
      <circle class="cls-2" cx="16.75" cy="16.75" r="16.5"/>
    </g>
  </g>
</svg>