<?xml version="1.0" encoding="UTF-8"?>
<svg id="Capa_2" data-name="Capa 2" xmlns="http://www.w3.org/2000/svg" viewBox="0 0 33.49 33.49">
  <defs>
    <style>
      .cls-1 {
        fill: #95785e;
        stroke-width: 0px;
      }

      .cls-2 {
        fill: none;
        stroke: #95785e;
        stroke-miterlimit: 10;
        stroke-width: .5px;
      }
    </style>
  </defs>
  <g id="Capa_1-2" data-name="Capa 1">
    <g>
      <g>
        <path class="cls-1" d="m10.08,22.32c-.05-.13-.22-.19-.35-.13l-3.94,1.78c-.13.05-.19.22-.13.35l1.81,3.94c.05.11.13.16.24.16.03,0,.08,0,.11-.03l3.94-1.81c.13-.03.22-.19.13-.32l-1.81-3.94Zm-2.24,5.48l-1.59-3.45,3.45-1.59,1.59,3.45-3.45,1.59Z"/>
        <path class="cls-1" d="m25.13,18.06c-1.43,0-2.59,1.16-2.59,2.59s1.16,2.59,2.59,2.59,2.59-1.16,2.59-2.59-1.16-2.59-2.59-2.59Zm0,4.67c-1.13,0-2.05-.92-2.05-2.05s.92-2.05,2.05-2.05,2.05.92,2.05,2.05-.92,2.05-2.05,2.05Z"/>
        <path class="cls-1" d="m21.27,10.56l2.48.89s.05.03.08.03c.05,0,.13-.03.16-.05l2-1.7c.08-.05.11-.16.08-.24l-.49-2.59c-.03-.11-.08-.16-.16-.22l-2.48-.89c-.08-.03-.19-.03-.27.05l-2,1.7c-.08.05-.11.16-.08.24l.51,2.56c.03.11.08.16.16.22Zm1.7-4.23l2.18.78.4,2.27-1.75,1.51-2.18-.78-.4-2.27,1.75-1.51Z"/>
        <path class="cls-1" d="m14.77,14.52c.05.05.13.08.19.08s.14-.03.19-.08l2.97-2.97c.11-.11.11-.27,0-.38l-2.97-2.97c-.11-.11-.27-.11-.38,0l-2.97,2.97c-.11.11-.11.27,0,.38l2.97,2.97Zm.19-5.77l2.59,2.59-2.59,2.62-2.59-2.59,2.59-2.62Z"/>
        <path class="cls-1" d="m24.78,15.57c0-.35-.13-.65-.38-.89L15.77,6.05c-.24-.24-.57-.38-.89-.38-.35,0-.65.13-.89.38L5.36,14.68c-.24.24-.38.57-.38.89,0,.35.14.65.38.89l8.63,8.63c.24.24.57.38.89.38.35,0,.65-.13.89-.38l8.63-8.63c.24-.24.38-.57.38-.89Zm-.76.51l-8.63,8.63c-.27.27-.76.27-1.02,0l-8.63-8.63c-.13-.13-.22-.32-.22-.51s.08-.38.22-.51L14.37,6.43c.13-.13.32-.22.51-.22s.38.08.51.22l8.63,8.63c.13.13.22.32.22.51s-.08.38-.22.51Z"/>
        <path class="cls-1" d="m17.42,13.82c-1,.97-1,2.56,0,3.56.49.49,1.13.73,1.78.73s1.29-.24,1.78-.73c1-1,1-2.59,0-3.56-1-1-2.59-1-3.56,0Zm3.18,3.18c-.78.78-2.02.78-2.81,0s-.78-2.02,0-2.81c.38-.4.89-.59,1.4-.59s1.03.19,1.4.59c.78.78.78,2.02,0,2.81Z"/>
        <path class="cls-1" d="m12.75,17.52l.65-2.45c.03-.08,0-.19-.08-.27l-1.81-1.81c-.08-.08-.16-.11-.27-.08l-2.45.65c-.08.03-.16.11-.19.19l-.65,2.45c-.03.08,0,.19.08.27l1.81,1.81c.05.05.11.08.19.08h.08l2.45-.65c.08-.03.16-.11.19-.19Zm-2.64.24l-1.56-1.56.57-2.16,2.16-.57,1.56,1.56-.57,2.16-2.16.57Z"/>
        <path class="cls-1" d="m16.58,17.89l-4.99,1.51c-.08.03-.16.11-.19.19s0,.19.08.24l3.48,3.48c.05.05.11.08.19.08h.05c.08-.03.16-.08.19-.19l1.51-4.99c.03-.11,0-.19-.05-.27s-.19-.08-.27-.05Zm-1.59,4.75l-2.83-2.83,4.07-1.24-1.24,4.07Z"/>
        <path class="cls-1" d="m20.65,22.02c-.08-.19-.38-.19-.49,0l-2.54,4.75c-.05.08-.05.19,0,.27s.13.13.24.13h5.07c.11,0,.19-.05.24-.13s.05-.19,0-.27l-2.54-4.75Zm-2.32,4.61l2.1-3.91,2.08,3.91h-4.18Z"/>
      </g>
      <circle class="cls-2" cx="16.75" cy="16.75" r="16.5"/>
    </g>
  </g>
</svg>