<?xml version="1.0" encoding="UTF-8"?>
<svg id="Capa_2" data-name="Capa 2" xmlns="http://www.w3.org/2000/svg" viewBox="0 0 33.49 33.49">
  <defs>
    <style>
      .cls-1 {
        fill: #95785e;
        stroke-width: 0px;
      }

      .cls-2 {
        fill: none;
        stroke: #95785e;
        stroke-miterlimit: 10;
        stroke-width: .5px;
      }
    </style>
  </defs>
  <g id="Capa_1-2" data-name="Capa 1">
    <g>
      <g>
        <path class="cls-1" d="m24.39,11.71h-3.61v-1.03c0-.24-.05-.49-.14-.71.14.03.24.05.38.05.24,0,.49-.08.71-.22l1.95-1.3c.14-.08.16-.24.08-.38l-1.14-1.68c-.03-.05-.11-.11-.16-.11-.08-.03-.14,0-.22.03l-1.93,1.3c-.46.3-.65.84-.54,1.33-.27-.14-.57-.22-.87-.22h-4.75c-1.06,0-1.9.84-1.9,1.9v1.03h-3.99c-1,0-1.84.84-1.84,1.84v10.49c0,1,.84,1.84,1.84,1.84h16.14c1,0,1.84-.84,1.84-1.84v-10.49c-.03-1.03-.84-1.84-1.87-1.84Zm-13.97,13.64h-2.14c-.73-.03-1.3-.6-1.3-1.3v-10.49c0-.71.6-1.3,1.3-1.3h2.14v13.1Zm1.84,0h-1.3v-13.1h1.3v13.1Zm8,0h-7.46v-13.1h7.46v13.1Zm0-13.64h-7.46v-1.03c0-.76.6-1.36,1.36-1.36h4.75c.38,0,.72.15.96.39.24.24.39.58.39.96v1.03Zm.16-2.55c-.06-.09-.1-.18-.12-.28-.04-.19,0-.39.1-.55.05-.08.12-.15.21-.2l1.74-1.14.53.78.31.47-.69.45-1.05.69c-.13.08-.28.11-.42.11-.24,0-.47-.1-.61-.32Zm1.65,16.19h-1.3v-13.1h1.3v13.1Zm3.61-1.3c0,.71-.6,1.3-1.3,1.3h-1.76v-13.1h1.76c.71,0,1.3.6,1.3,1.3v10.49Z"/>
        <path class="cls-1" d="m15.33,14.23h2.55c.16,0,.27-.11.27-.27s-.11-.27-.27-.27h-2.55c-.16,0-.27.11-.27.27s.11.27.27.27Z"/>
      </g>
      <circle class="cls-2" cx="16.75" cy="16.75" r="16.5"/>
    </g>
  </g>
</svg>