<?xml version="1.0" encoding="UTF-8"?>
<svg id="Capa_2" data-name="Capa 2" xmlns="http://www.w3.org/2000/svg" viewBox="0 0 33.49 43.49">
  <defs>
    <style>
      .cls-1 {
        fill: #95785e;
      }

      .cls-2 {
        fill: none;
        stroke: #95785e;
        stroke-miterlimit: 10;
        stroke-width: .5px;
      }
    </style>
  </defs>
  <g id="Capa_1-2" data-name="Capa 1">
    <g>
      <g>
        <path class="cls-1" d="m26.27,21.26c-.27-.27-.62-.42-1-.42h-.03c-.36,0-.68.18-.88.45l-2.11-2.11-.43-3.22c-.19-1.42-1.41-2.49-2.85-2.49-.39,0-.71.32-.71.71v.74c0,.83-.67,1.5-1.5,1.5s-1.5-.67-1.5-1.5v-.74c0-.39-.32-.71-.72-.71-1.43,0-2.66,1.07-2.85,2.49l-.43,3.22-2.11,2.11s-.07-.09-.11-.13c-.2-.2-.48-.32-.77-.32h0c-.8,0-1.45.65-1.45,1.45s.63,1.43,1.41,1.45c-.19.27-.3.59-.3.95,0,.9.73,1.64,1.64,1.64h14.39c.9,0,1.64-.73,1.64-1.64,0-.35-.11-.68-.3-.95.78-.02,1.41-.67,1.41-1.46v-.03c0-.38-.15-.74-.42-1Zm-6.53-1.3l.12-1.01.11.55c.1.5.34.95.7,1.31l2.26,2.26h-2.58l-.54-2.17c-.08-.31-.1-.62-.06-.94Zm-5.2-5.8s.02.01.02.02v.74c0,1.21.98,2.19,2.19,2.19s2.19-.98,2.19-2.19v-.74s.01-.02.02-.02c.26,0,.51.05.74.13l-.66,5.58c-.05.4-.02.8.08,1.18l.5,2h-5.75l.5-2c.1-.39.12-.79.08-1.18l-.66-5.58c.23-.09.48-.13.75-.13Zm-.89,4.78l.12,1.01c.04.31.02.63-.06.94l-.54,2.17h-2.58l2.26-2.26c.36-.36.6-.81.7-1.31l.11-.55Zm-5.38,4.12c-.42,0-.76-.34-.76-.76s.34-.76.76-.76c.1,0,.2.04.28.11.07.07.11.17.11.28,0,.14.08.27.21.32.13.05.28.02.38-.07l2.58-2.58c.05-.05.09-.12.1-.2l.45-3.34c.07-.56.36-1.04.77-1.38l.24,2.05-.53,2.64c-.07.36-.25.69-.51.95l-2.74,2.74h-1.33Zm7.03,2.58h-5.74c-.52,0-.95-.42-.95-.95s.42-.95.95-.95h2.42v.17c0,.51.35.95.85,1.06l2.47.55v.11h0Zm0-.82l-2.32-.52c-.18-.04-.31-.2-.31-.38v-.17h2.63v1.07Zm8.65.82h-7.95v-1.89h7.95c.52,0,.95.42.95.95s-.42.95-.95.95Zm2.05-3.35c0,.42-.34.77-.76.77h-1.33l-2.74-2.74c-.26-.26-.44-.59-.51-.95l-.53-2.64.24-2.05c.41.34.69.83.77,1.38l.45,3.34c.01.08.04.15.1.2l2.58,2.58c.1.1.25.13.38.07.13-.05.21-.18.21-.32,0-.22.18-.39.39-.39h.03c.19,0,.38.08.51.21.14.14.21.32.21.51v.03h0Z"/>
        <path class="cls-1" d="m18.16,6.77c.03-.11.04-.23.04-.34,0-.8-.65-1.45-1.45-1.45s-1.45.65-1.45,1.45c0,.12.01.23.04.34-1.11.53-1.89,1.67-1.89,2.98v.34c0,.19.15.34.34.35.02,0,.16,0,.39-.01v.44c0,1.41,1.15,2.56,2.56,2.56s2.56-1.15,2.56-2.56v-.43c.13.02.26.04.39.04.19,0,.35-.15.35-.35v-.37c0-1.31-.77-2.45-1.88-2.98Zm-1.41-1.1c.42,0,.76.34.76.76,0,.04,0,.07,0,.11-.24-.06-.49-.09-.75-.09s-.51.03-.75.09c0-.04,0-.07,0-.11,0-.42.34-.76.76-.76Zm1.87,5.19c0,1.03-.84,1.87-1.87,1.87s-1.87-.84-1.87-1.87v-.51c.78-.11,1.86-.35,2.89-.89.18.2.47.49.85.71v.69h0Zm-.47-2.04c-.1-.15-.31-.2-.46-.11-1.32.78-2.86.97-3.54,1.01.01-1.43,1.18-2.58,2.61-2.58s2.59,1.16,2.61,2.58c-.72-.19-1.21-.9-1.21-.91Z"/>
      </g>
      <circle class="cls-2" cx="16.75" cy="16.75" r="16.5"/>
    </g>
    <text x="12" y="39" fill="#95785e" font-size="5">Yoga</text>
  </g>
</svg>