<?xml version="1.0" encoding="UTF-8"?>
<svg id="Capa_2" data-name="Capa 2" xmlns="http://www.w3.org/2000/svg" viewBox="0 0 31.48 41.48">
  <defs>
    <style>
      .cls-1 {
        fill: #95785e;
      }

      .cls-2 {
        fill: none;
        stroke: #95785e;
        stroke-miterlimit: 10;
        stroke-width: .5px;
      }
    </style>
  </defs>
  <g id="Capa_1-2" data-name="Capa 1">
    <g>
      <g>
        <path class="cls-1" d="m24.83,11.73l-.09-.14c-.36-.58-1.13-.76-1.71-.39-.02.01-.05.03-.07.05l-.98.71c-.47.35-.64.98-.4,1.51l-1.68,1.15c-.45-2.73-1.54-5.32-3.18-7.55-.11-.14-.28-.22-.45-.22h0c-.18,0-.35.08-.45.22-.89,1.18-4.18,6.04-3.21,12.53l-1.97,1.34c-.38-.39-.98-.48-1.46-.22l-1.06.57c-.6.32-.83,1.07-.51,1.67.01.03.03.06.05.08l.09.14c.18.29.48.49.82.55.07.01.15.02.22.02.26,0,.52-.08.73-.23l.98-.71c.47-.35.64-.98.4-1.51l1.8-1.22c.41,2.28,1.35,4.77,3.11,7.34.11.15.28.25.47.25h0c.19,0,.36-.09.47-.25,3.14-4.61,3.69-8.87,3.24-12.31l1.86-1.27c.23.23.55.36.88.37.2,0,.4-.05.58-.15l1.07-.57c.6-.32.83-1.07.51-1.67-.01-.03-.03-.06-.05-.08h.01Zm-14.6,10.72l-.99.71c-.36.26-.86.18-1.12-.18,0-.01-.02-.03-.03-.04l-.09-.14c-.12-.19-.15-.42-.09-.63.06-.21.2-.39.39-.5l1.07-.57c.39-.21.87-.07,1.09.31.2.36.09.81-.24,1.04h0Zm5.92-15.11h0c.04-.06.12-.08.18-.04.01,0,.03.02.04.04.56.75,1.05,1.54,1.46,2.38-.99-.49-2.16-.48-3.14.02.42-.84.91-1.64,1.47-2.39h0Zm-1.8,3.09c1.13-.86,2.69-.86,3.82,0,.64,1.42,1.08,2.92,1.32,4.46l-1.69,1.15v-.25c0-.85-.69-1.54-1.54-1.54s-1.54.69-1.54,1.54v2.35l-1.72,1.18c-.39-3.03.07-6.11,1.35-8.89Zm.81,7.94l2.19-1.5v1.88c0,.61-.49,1.1-1.1,1.1s-1.1-.49-1.1-1.1v-.39Zm0-.53v-2.05c0-.61.49-1.1,1.1-1.1s1.1.49,1.1,1.1v.55l-2.19,1.5Zm1.2,9.32s-.06.06-.11.06c-.04,0-.08-.02-.11-.06-.59-.86-1.12-1.77-1.57-2.71.53.28,1.12.43,1.72.44.57,0,1.13-.15,1.63-.42-.45.93-.98,1.83-1.57,2.69Zm1.88-3.38l-.02-.02c-1.16.92-2.79.92-3.95,0l-.02.02c-.56-1.28-.96-2.62-1.19-3.99l1.65-1.13v.09c0,.85.69,1.54,1.54,1.54s1.54-.69,1.54-1.54v-2.18l1.76-1.2c.33,2.87-.12,5.77-1.3,8.4Zm6.29-11.19c-.06.21-.2.4-.39.5l-1.07.57c-.39.21-.87.07-1.09-.31-.2-.36-.09-.81.24-1.04l.99-.71c.13-.1.3-.15.46-.15.05,0,.1,0,.16.02.22.04.41.17.52.36l.09.14c.12.19.15.41.1.63Z"/>
        <path class="cls-1" d="m16.26,27.71c-.21,0-.4-.1-.51-.27-1.6-2.34-2.64-4.79-3.1-7.28l-1.69,1.15c.23.55.05,1.19-.43,1.54l-.98.71c-.23.16-.49.24-.77.24-.08,0-.16,0-.23-.03-.35-.06-.66-.27-.85-.57l-.09-.14s-.03-.06-.05-.09c-.33-.63-.09-1.41.54-1.75l1.06-.57c.49-.26,1.09-.18,1.49.2l1.91-1.29c-.94-6.41,2.23-11.21,3.23-12.53.12-.15.3-.24.49-.24h.01c.19,0,.37.09.49.24,1.62,2.21,2.72,4.8,3.18,7.49l1.58-1.08c-.23-.55-.05-1.19.43-1.54l.98-.71s.05-.03.07-.05c.29-.18.64-.24.98-.16.34.08.62.28.81.57l.2.33-.03-.02c.27.61.02,1.34-.58,1.66l-1.07.57c-.19.1-.4.15-.61.15-.33,0-.64-.13-.88-.35l-1.8,1.22c.55,4.2-.55,8.35-3.25,12.31-.12.17-.31.27-.51.27Zm-3.54-7.73v.08c.46,2.5,1.51,4.96,3.12,7.32.1.14.26.22.43.22.17,0,.33-.08.43-.22,2.69-3.95,3.78-8.08,3.23-12.27v-.03s1.92-1.31,1.92-1.31l.03.03c.22.22.52.35.84.35.19,0,.39-.05.56-.14l1.07-.57c.58-.31.8-1.02.49-1.6-.01-.03-.03-.05-.05-.08l-.12-.19h.01c-.17-.23-.42-.4-.71-.47-.31-.07-.63-.02-.9.15-.02.01-.04.03-.07.04l-.98.71c-.45.33-.61.94-.38,1.45l.02.04-1.79,1.22v-.08c-.46-2.71-1.56-5.31-3.18-7.53-.1-.12-.25-.2-.4-.2,0,0,0,0,0,0-.16,0-.31.07-.41.2-.99,1.31-4.16,6.1-3.2,12.48v.03s-2.03,1.38-2.03,1.38l-.03-.03c-.37-.37-.93-.46-1.4-.21l-1.06.57c-.58.31-.8,1.02-.49,1.6.01.03.03.05.05.08l.09.14c.18.27.46.47.78.53.07.01.14.02.21.02.25,0,.5-.07.7-.22l.98-.71c.45-.33.61-.94.38-1.45l-.02-.04,1.9-1.3Zm3.55,7.29c-.06,0-.12-.03-.15-.08-.59-.86-1.12-1.77-1.58-2.71l-.07-.15.14.08c.52.27,1.11.42,1.7.43.56,0,1.11-.14,1.61-.41l.15-.08-.07.15c-.45.93-.98,1.84-1.57,2.69-.03.05-.09.08-.15.08Zm-1.56-2.7c.44.88.94,1.74,1.5,2.56.01.02.04.03.06.03.02,0,.05-.01.06-.03h0c.55-.81,1.06-1.66,1.49-2.53-.47.23-.99.35-1.51.35-.55,0-1.1-.14-1.6-.37Zm1.56-.07c-.69,0-1.38-.22-1.97-.67l-.04.05-.04-.08c-.56-1.28-.96-2.63-1.2-4.01v-.03s1.76-1.2,1.76-1.2v.19c0,.82.66,1.48,1.48,1.48s1.48-.66,1.48-1.48v-2.21l1.85-1.26v.09c.34,2.87-.11,5.79-1.3,8.43l-.04.09-.04-.05c-.58.44-1.27.67-1.96.67Zm-1.98-.81l.04.03c1.14.9,2.74.9,3.88,0l.03-.02c1.14-2.58,1.58-5.42,1.28-8.22l-1.66,1.13v2.15c0,.88-.71,1.59-1.59,1.59s-1.58-.71-1.59-1.58l-1.54,1.05c.23,1.33.61,2.63,1.15,3.87Zm-5.51-.32s-.09,0-.14-.01c-.23-.04-.42-.16-.56-.34-.01-.01-.02-.03-.03-.04l-.09-.14c-.13-.2-.16-.45-.1-.67.06-.23.21-.42.42-.53l1.07-.57c.2-.11.43-.14.65-.07.22.06.4.21.51.41.21.38.1.86-.25,1.11l-.08.06h0s-.9.64-.9.64c-.15.11-.32.16-.5.16Zm.99-2.31c-.12,0-.25.03-.36.09l-1.07.57c-.18.1-.32.27-.37.46-.05.2-.02.41.09.59l.09.14s.02.03.03.04c.12.16.29.27.49.3.2.03.39-.02.56-.13l1.07-.77h0c.24-.23.31-.6.14-.9-.1-.17-.25-.3-.45-.36-.07-.02-.14-.03-.21-.03Zm6.5-1.15c-.63,0-1.15-.52-1.15-1.15v-.42l2.3-1.57v1.99c0,.63-.52,1.15-1.15,1.15Zm-1.04-1.51v.36c0,.58.47,1.04,1.04,1.04s1.04-.47,1.04-1.04v-1.78l-2.09,1.42Zm-2.26,1.01v-.09c-.41-3.04.06-6.13,1.34-8.91l.02-.02c1.14-.87,2.74-.87,3.89,0l.02.02c.64,1.42,1.09,2.93,1.32,4.47v.03s-1.8,1.23-1.8,1.23v-.35c0-.82-.66-1.48-1.48-1.48s-1.48.66-1.48,1.48v2.38l-1.82,1.24Zm1.43-8.94c-1.26,2.74-1.72,5.77-1.35,8.76l1.63-1.11v-2.32c0-.88.71-1.59,1.59-1.59s1.59.71,1.59,1.59v.15l1.58-1.08c-.23-1.52-.67-3-1.3-4.4-1.1-.83-2.64-.83-3.74,0Zm.72,7.48v-2.15c0-.63.52-1.15,1.15-1.15s1.15.52,1.15,1.15v.58l-2.3,1.57Zm1.15-3.19c-.58,0-1.04.47-1.04,1.04v1.95l2.09-1.42v-.52c0-.58-.47-1.04-1.04-1.04Zm6.43-.93c-.3,0-.59-.16-.75-.44-.21-.38-.1-.86.25-1.11l.98-.71c.14-.1.31-.16.49-.16h.01c.05,0,.11,0,.16.02.23.04.43.18.56.38l.09.14c.12.2.16.44.1.67-.06.23-.21.42-.42.53l-1.07.57c-.13.07-.27.11-.41.11Zm.98-2.31c-.15,0-.3.05-.43.14l-.99.71c-.31.22-.41.64-.22.97.2.36.65.49,1.01.29l1.07-.57c.18-.1.32-.27.37-.47h0c.05-.2.02-.41-.09-.58l-.09-.14c-.11-.18-.29-.3-.49-.34-.05,0-.1-.01-.15-.01h0Zm-9.11-1.66l.07-.14c.41-.82.89-1.61,1.44-2.35l.03-.05c.06-.09.17-.11.26-.05.02.01.04.03.05.05.56.75,1.05,1.55,1.47,2.38l.07.14-.14-.07c-.97-.48-2.13-.47-3.1.02l-.14.07Zm1.65-2.51l-.02.03c-.53.71-.99,1.46-1.39,2.25.92-.41,1.99-.42,2.91-.01-.4-.78-.87-1.53-1.39-2.23,0-.01-.01-.02-.02-.02-.02-.02-.06-.02-.08,0Z"/>
      </g>
      <circle class="cls-2" cx="15.74" cy="15.74" r="15.49"/>
    </g>
    <text x="10" y="39" fill="#95785e" font-size="5">Kayak</text>
  </g>
</svg>