<?xml version="1.0" encoding="UTF-8"?>
<svg id="Capa_2" data-name="Capa 2" xmlns="http://www.w3.org/2000/svg" viewBox="0 0 31.48 41.48">
  <defs>
    <style>
      .cls-1 {
        fill: #95785e;
        stroke-width: .25px;
      }

      .cls-1, .cls-2 {
        stroke: #95785e;
        stroke-miterlimit: 10;
      }

      .cls-2 {
        fill: none;
        stroke-width: .5px;
      }
    </style>
  </defs>
  <g id="Capa_1-2" data-name="Capa 1">
    <g>
      <g>
        <g>
          <path class="cls-1" d="m25.64,10.69L5.93,6.69c-.31-.06-.42.4-.1.48.05,0,19.71,4.01,19.76,4.01.28,0,.34-.42.05-.48Z"/>
          <path class="cls-1" d="m21.93,19.37c-.2-.37-.59-.6-1.01-.6h-2.62c-.07.01-.13-.02-.17-.08l-1.81-2.78c-.05-.08-.04-.18.02-.25l1.33-1.43c.1-.07.91-1.52,1-1.65.26-.43.09-1.03-.35-1.27-.43-.23-.99-.07-1.24.37l-.74,1.27c-.05.09-.06.1-.07.1l-1.24,1.35s-.03.02-.04.03l-3.29,2.09h0s-1.59,1.32-1.63,1.35c-.11.09-.2.2-.27.33l-.98,1.81c-.54,1.09.99,1.92,1.61.88l.9-1.66s.03-.04.05-.06l.91-.76c.09-.08.24-.06.3.04l2.26,3.47c.12.19.29.33.5.42l2.37,1.04c.06.03.11.09.12.16l.31,2.06c.08.5.54.86,1.02.8.5-.05.88-.55.79-1.05l-.41-2.69c-.06-.38-.3-.71-.65-.87l-1.35-.61c-.15-.07-.16-.27-.02-.36l.18-.11c.1-.06.21-.09.33-.09h2.36c.08,0,.14.03.18.1l1.05,1.95c.27.53.96.65,1.4.25.32-.26.41-.75.22-1.11l-1.31-2.43Zm.78,3.17c-.21.2-.52.16-.65-.1l-1.05-1.95c-.12-.23-.35-.36-.61-.36h-2.36c-.2.01-.4.07-.58.17l-.18.11c-.22.13-.35.37-.34.63.01.26.17.48.4.59l1.35.61c.2.09.34.28.37.49l.41,2.69c.02.12-.01.23-.08.32-.23.31-.71.16-.77-.22l-.31-2.06c-.04-.24-.19-.43-.41-.53l-2.37-1.04c-.12-.05-.21-.13-.28-.24l-2.26-3.47c-.13-.19-.35-.31-.58-.31-.16,0-.32.06-.44.16l-.91.76c-.07.06-.12.12-.16.2l-.9,1.66c-.28.49-1.01.1-.75-.41.08-.11,1.03-2,1.13-2l1.51-1.26s.04-.03.07-.05l3.29-2.09c.06,0,1.31-1.4,1.38-1.46.04-.04.07-.08.13-.19l.74-1.27c.12-.21.39-.29.59-.18.21.11.29.39.16.59l-.85,1.45s-.05.08-.08.11l-1.33,1.43c-.22.23-.25.58-.07.85l1.81,2.78c.13.2.34.31.58.31,0,0,2.62-.01,2.62-.01.24,0,.46.13.58.34l1.3,2.43c.08.16.04.39-.1.51h0Z"/>
          <path class="cls-1" d="m11.81,15.31c1.59.15,2.58-1.74,1.55-2.96-1.02-1.23-3.05-.6-3.19,1-.11.97.67,1.9,1.64,1.96h0Zm-1.15-1.92c.1-1.16,1.58-1.63,2.33-.73.75.89.03,2.28-1.13,2.16-.71-.05-1.28-.73-1.2-1.43h0Z"/>
        </g>
        <g>
          <path class="cls-1" d="m17.15,9.28c-.63,0-1.14-.51-1.14-1.14.06-1.51,2.22-1.51,2.28,0,0,.63-.51,1.14-1.14,1.14Zm0-1.79c-.36,0-.65.29-.65.65.03.86,1.27.86,1.3,0,0-.36-.29-.65-.65-.65Z"/>
          <path class="cls-1" d="m19.76,9.77c-.63,0-1.14-.51-1.14-1.14.06-1.51,2.22-1.51,2.28,0,0,.63-.51,1.14-1.14,1.14Zm0-1.79c-.36,0-.65.29-.65.65.03.86,1.27.86,1.3,0,0-.36-.29-.65-.65-.65Z"/>
          <path class="cls-1" d="m13.94,21.43c-.23,0-.34-.31-.14-.45l4.19-2.89v-8.65c0-.32.48-.33.49,0v8.78c0,.08-.04.16-.11.2l-4.3,2.97s-.09.04-.14.04h0Z"/>
          <path class="cls-1" d="m20.65,10.17c-.08,0-4.78-.97-4.85-.98-.13-.03-.22-.16-.19-.29.03-.13.16-.22.29-.19l4.8.97c.28.06.24.48-.05.48Z"/>
        </g>
      </g>
      <circle class="cls-2" cx="15.74" cy="15.74" r="15.49"/>
    </g>
    <text x="8" y="39" fill="#95785e" font-size="5">Tirolesa</text>
  </g>
</svg>