<?xml version="1.0" encoding="UTF-8"?>
<svg id="Capa_2" data-name="Capa 2" xmlns="http://www.w3.org/2000/svg" viewBox="0 0 31.48 41.48">
  <defs>
    <style>
      .cls-1 {
        fill: #95785e;
      }

      .cls-2 {
        fill: none;
        stroke: #95785e;
        stroke-miterlimit: 10;
        stroke-width: .5px;
      }
    </style>
  </defs>
  <g id="Capa_1-2" data-name="Capa 1">
    <g>
      <path class="cls-1" d="m11.73,23.46l-.12,1.26h.57c.35-3.62.69-7.23,1.04-10.85h-.56l-.8,8.33-.12,1.27Zm7.9-7.2l.83,8.69c.03.17-.1.33-.28.33h-1.13c-.14,0-.27-.11-.28-.26l-.06-.65-2.97-1.95-2.97,1.95-.06.65c-.01.14-.13.26-.28.26h-1.13c-.18,0-.31-.16-.28-.33l.15-1.54.12-1.27.79-8.27h-.46c-.16,0-.28-.13-.28-.28v-1.31c0-.16.13-.28.28-.28h0s.3,0,.3,0v-3.3h-.3c-.16,0-.28-.13-.28-.28,0-.11.07-.21.17-.26l4.1-2.05c.08-.04.17-.04.25,0l.99.49,1.14.57,1.99.99c.14.07.2.24.13.38-.05.1-.14.16-.25.16h-.3v3.3h.3c.16,0,.28.13.28.28v1.31c0,.16-.13.28-.28.28h-.46l.11,1.12.12,1.27Zm-.68-1.22l-.11-1.18h-.56c.35,3.62.69,7.23,1.04,10.85h.57l-.8-8.41-.12-1.27Zm-2.34-7.93l-.86-.43-2.92,1.46h5.84l-.92-.46-1.14-.57Zm2.04,16.54l-.28-2.96-2.11,1.39,2.39,1.57Zm-.57-3.44l-2.33-1.43-2.33,1.43,2.33,1.53,2.33-1.53Zm-4.95.48l-.28,2.96,2.39-1.57-2.11-1.39Zm5.14-1.02l-.22-2.3-1.76,1.08,1.98,1.22Zm-.5-2.79l-2.02-1.41-2.02,1.41,2.02,1.24,2.02-1.24Zm-4.32.49l-.22,2.3,1.98-1.22-1.76-1.08Zm4.5-1.05l-.21-2.23-1.5,1.04,1.71,1.19Zm-.88-2.45h-2.65l1.33.92,1.32-.92Zm-3.31.22l-.21,2.23,1.71-1.19-1.5-1.04Zm5.24-3.19v-1.11h-6.5v1.11m0,.56v.53h6.5v-.53h-6.5Zm0-2.24h6.5v-.53h-6.5v.53Zm7.08,3.33h-7.66v.75h7.66v-.75Z"/>
      <circle class="cls-2" cx="15.74" cy="15.74" r="15.49"/>
    </g>
    <text x="8" y="39" fill="#95785e" font-size="5">Mirador</text>
  </g>
</svg>