<?xml version="1.0" encoding="UTF-8"?>
<svg id="Capa_2" data-name="Capa 2" xmlns="http://www.w3.org/2000/svg" viewBox="0 0 33.49 43.49">
  <defs>
    <style>
      .cls-1 {
        fill: #95785e;
      }

      .cls-2 {
        fill: none;
        stroke: #95785e;
        stroke-miterlimit: 10;
        stroke-width: .5px;
      }
    </style>
  </defs>
  <g id="Capa_1-2" data-name="Capa 1">
    <g>
      <circle class="cls-2" cx="16.75" cy="16.75" r="16.5"/>
      <g>
        <path class="cls-1" d="m19.33,14.41c1.16,0,2.46-1.37,2.46-3.33,0-1.53-.98-2.33-1.94-2.33-1.15,0-2.37,1.27-2.37,3.17,0,1.75.55,2.49,1.85,2.49m-.52-4.13c.29-.42.68-.68,1.04-.68s1.09.31,1.09,1.48c0,1.6-1.06,2.48-1.61,2.48-.68,0-1-.25-1-1.64,0-.62.17-1.2.48-1.64"/>
        <path class="cls-1" d="m13.65,8.75c-.97,0-1.94.8-1.94,2.33,0,1.96,1.3,3.33,2.46,3.33,1.3,0,1.85-.74,1.85-2.49,0-1.89-1.23-3.17-2.37-3.17m.52,4.81c-.55,0-1.61-.88-1.61-2.48,0-1.17.71-1.48,1.09-1.48.72,0,1.52.99,1.52,2.32,0,1.4-.32,1.64-1,1.64"/>
        <path class="cls-1" d="m23.89,12.95c-1.15,0-2.37,1.13-2.37,2.82,0,1.55.57,2.23,1.85,2.23,1.03,0,2.46-1.13,2.46-2.97,0-.8-.34-1.29-.62-1.56-.35-.34-.83-.53-1.32-.53m-.52,4.21c-.71,0-1-.19-1-1.38s.8-1.97,1.52-1.97c.41,0,1.09.26,1.09,1.24,0,1.37-1.06,2.12-1.61,2.12"/>
        <path class="cls-1" d="m9.6,12.95c-.94,0-1.94.73-1.94,2.09,0,1.84,1.43,2.97,2.46,2.97,1.28,0,1.85-.69,1.85-2.23,0-1.69-1.23-2.82-2.37-2.82m.52,4.21c-.55,0-1.61-.75-1.61-2.12,0-.98.69-1.24,1.09-1.24.72,0,1.52.81,1.52,1.97s-.29,1.38-1,1.38"/>
        <path class="cls-1" d="m12.93,18.07c-.44.65-.95,1.01-1.44,1.36-1.72,1.21-1.61,2.56-1.39,3.25.37,1.16,1.51,2.07,2.6,2.07,1.15,0,1.95-.4,2.6-.73.5-.25.94-.47,1.44-.47s.94.22,1.45.48c.68.34,1.45.72,2.59.72,1.35,0,2.73-1.43,2.73-2.83s-.64-1.85-1.46-2.44c-.57-.42-1.22-.89-1.71-1.74h0c-.48-.84-1.28-2.25-3.61-2.25s-3.01,1.26-3.56,2.19c-.09.15-.17.28-.25.4m1.09-.15c.58-.89,1.03-1.59,2.73-1.59s2.14.7,2.71,1.58c.41.63.92,1.41,2.06,2.22.72.5,1.15.81,1.15,1.79s-1.06,1.98-1.88,1.98c-.94,0-1.6-.33-2.24-.65-.57-.28-1.1-.55-1.8-.55s-1.28.29-1.83.56c-.62.31-1.27.64-2.21.64-.82,0-1.88-.96-1.88-1.98s.43-1.28,1.15-1.79c1.13-.8,1.64-1.58,2.05-2.21"/>
      </g>
    </g>
    <text x="6" y="39" fill="#95785e" font-size="5">Pet friendly</text>
  </g>
</svg>