<?xml version="1.0" encoding="UTF-8"?>
<svg id="Capa_2" data-name="Capa 2" xmlns="http://www.w3.org/2000/svg" viewBox="0 0 33.49 43.49">
  <defs>
    <style>
      .cls-1 {
        fill: #95785e;
      }

      .cls-2 {
        fill: none;
        stroke: #95785e;
        stroke-miterlimit: 10;
        stroke-width: .5px;
      }
    </style>
  </defs>
  <g id="Capa_1-2" data-name="Capa 1">
    <g>
      <path class="cls-1" d="m26.92,25.26h-3.69l-2.28-2.7,4.47-4.41c.13-.13.13-.34,0-.47-.13-.13-.34-.13-.47,0l-4.59,4.54h-3.17v-8.88h7.57c.19,0,.34-.16.34-.35-.16-4.41-3.79-7.86-8.24-7.86s-8.08,3.45-8.24,7.86c0,.19.15.35.34.35h7.57v8.88h-7.41c-.19,0-.34.15-.34.34s.15.34.34.34h1.49l-2,2.38h-1.82c-.19,0-.34.15-.34.34s.15.34.34.34h20.14c.19,0,.34-.15.34-.34s-.15-.34-.34-.34Zm-2.52-12.6h-4.92c.54-2.34-.07-4.79-1.68-6.62l-.18-.2c3.62.36,6.48,3.2,6.78,6.82Zm-15.11,0c.3-3.62,3.16-6.47,6.78-6.82l-.18.2c-1.6,1.83-2.21,4.28-1.68,6.62h-4.92Zm5.62,0c-.55-2.18,0-4.47,1.49-6.18l.45-.51.45.51c1.49,1.71,2.04,4,1.49,6.18h-3.87Zm-5.44,12.6l2-2.38h8.86l2.02,2.38h-12.87Z"/>
      <circle class="cls-2" cx="16.75" cy="16.75" r="16.5"/>
    </g>
    <text x="8" y="39" fill="#95785e" font-size="5">Playaviva</text>
  </g>
</svg>