<?xml version="1.0" encoding="UTF-8"?>
<svg id="Capa_2" data-name="Capa 2" xmlns="http://www.w3.org/2000/svg" viewBox="0 0 33.49 43.49">
  <defs>
    <style>
      .cls-1 {
        fill: #95785e;
      }

      .cls-2 {
        fill: none;
        stroke: #95785e;
        stroke-miterlimit: 10;
        stroke-width: .5px;
      }
    </style>
  </defs>
  <g id="Capa_1-2" data-name="Capa 1">
    <g>
      <path class="cls-1" d="m17.04,6.76c-.15-.16-.43-.16-.58,0L7.53,15.94c-.62.64-.62,1.68,0,2.32.31.31.71.49,1.15.49.29,0,.56-.08.81-.23v7.09c0,.22.18.4.4.4h4.84c.22,0,.4-.18.4-.4v-5.25h3.23v5.25c0,.22.18.4.4.4h4.84c.22,0,.4-.18.4-.4v-7.09c.24.14.52.23.81.23.43,0,.84-.17,1.15-.49.62-.64.62-1.68,0-2.32l-8.93-9.18Zm6.17,18.45h-4.04v-5.25c0-.22-.18-.4-.4-.4h-4.04c-.22,0-.4.18-.4.4v5.25h-4.04v-7.43l6.46-6.64,6.46,6.64v7.43Zm2.18-7.51c-.3.31-.83.31-1.13,0l-7.22-7.42c-.08-.08-.18-.12-.29-.12s-.21.04-.29.12l-7.22,7.42c-.3.31-.83.31-1.13,0-.32-.33-.32-.87,0-1.2l8.64-8.88,8.64,8.88c.32.33.32.87,0,1.2Z"/>
      <circle class="cls-2" cx="16.75" cy="16.75" r="16.5"/>
    </g>
    <text x="8" y="39" fill="#95785e" font-size="5">Casa club</text>
  </g>
</svg>