<?xml version="1.0" encoding="UTF-8"?>
<svg id="Capa_2" data-name="Capa 2" xmlns="http://www.w3.org/2000/svg" viewBox="0 0 31.48 41.48">
  <defs>
    <style>
      .cls-1 {
        fill: #95785e;
      }

      .cls-2 {
        fill: none;
        stroke: #95785e;
        stroke-miterlimit: 10;
        stroke-width: .5px;
      }
    </style>
  </defs>
  <g id="Capa_1-2" data-name="Capa 1">
    <g>
      <g>
        <circle class="cls-1" cx="20.44" cy="11.24" r=".47"/>
        <path class="cls-1" d="m21.72,13.11c0-.33.27-.59.59-.59h.93c.19,0,.34-.15.34-.34s-.15-.34-.34-.34h-.59v-.12c-.09-1.51-1.25-2.67-2.71-2.69h-.03c-.95,0-1.84.5-2.34,1.31l-6.77,11.07-1.87,2.8c-.07.11-.08.24-.02.35.06.11.17.18.3.18h2.8c.15,0,.28-.09.33-.23l.86-2.57h1.41l.84,1.68c.04.08.11.14.2.17.09.03.18.02.26-.02.17-.08.24-.29.15-.46l-.69-1.37h.38c.21,0,.42-.01.62-.03h.09s.86,1.71.86,1.71c.04.08.11.14.2.17.09.03.18.02.26-.02.17-.08.24-.29.15-.46l-.77-1.54.15-.04c2.59-.7,4.4-3.08,4.4-5.78v-2.84Zm-9.94,10.94h-1.92l1.41-2.12h1.21l-.71,2.12Zm1.4-2.8h-1.48l4.35-7.11c.33-.43.85-.68,1.38-.68.96,0,1.73.79,1.73,1.76,0,3.32-2.68,6.02-5.98,6.03Zm7.85-8.14v2.84c0,2.53-1.79,4.72-4.26,5.2l-.67.13.57-.36c1.98-1.24,3.16-3.37,3.16-5.7,0-1.35-1.08-2.45-2.42-2.45-.11,0-.21,0-.31.02l-.26.04,1.31-2.13c.37-.61,1.04-.98,1.75-.98h.03c1.25.02,1.98,1.08,2.03,2.07v.09s-.08.03-.08.03c-.51.18-.85.66-.85,1.2Z"/>
      </g>
      <circle class="cls-2" cx="15.74" cy="15.74" r="15.49"/>
    </g>
    <text x="" y="39" fill="#95785e" font-size="5">Aves y especies</text>
  </g>
</svg>