<?xml version="1.0" encoding="UTF-8"?>
<svg id="Capa_2" data-name="Capa 2" xmlns="http://www.w3.org/2000/svg" viewBox="0 0 31.48 41.48">
  <defs>
    <style>
      .cls-1 {
        fill: #95785e;
      }

      .cls-2 {
        fill: none;
        stroke: #95785e;
        stroke-miterlimit: 10;
        stroke-width: .5px;
      }
    </style>
  </defs>
  <g id="Capa_1-2" data-name="Capa 1">
    <g>
      <g id="_006---Hiking" data-name="006---Hiking">
        <path id="Shape" class="cls-1" d="m18.83,10.49c1.08,0,1.95-.87,1.95-1.95s-.87-1.95-1.95-1.95-1.95.87-1.95,1.95c0,1.08.87,1.95,1.95,1.95Zm0-3.25c.72,0,1.3.58,1.3,1.3s-.58,1.3-1.3,1.3-1.3-.58-1.3-1.3.58-1.3,1.3-1.3Z"/>
        <path id="Shape-2" data-name="Shape" class="cls-1" d="m25.59,24.51c-.11-.22-.34-.36-.58-.36h-2.93v-8.52c.39-.14.65-.5.65-.92s-.26-.78-.65-.92v-1.69c0-.18-.15-.33-.33-.33s-.33.15-.33.33v1.63h-.95c-.11,0-.21-.05-.27-.14l-1.54-2.31c-.49-.74-1.45-1.02-2.27-.65-.05-.36-.3-.65-.64-.77l-1.84-.64c-.51-.18-1.07.1-1.24.6l-.32.92c-.17-.05-.34.04-.4.21s.03.34.19.41l-.43,1.23c-.17-.05-.34.04-.4.21-.06.16.02.34.18.41-.31.91-.42,1.08-.36,1.42-.43.1-.73.48-.75.92-.01.44.27.83.69.96,2.2.77,2.32.87,2.73.74l-.29,2.06c-.03.22.1.05-2.37,3.39-.32.42-.36.99-.09,1.45h-3.62c-.25,0-.47.14-.58.36h18.72Zm-5.98-.36c.13-.21.19-.46.19-.71v-3.23c0-.48-.17-.94-.49-1.3l-1.94-2.19c-.08-.09-.1-.21-.06-.32l.6-1.78.27.38c.31.43.8.68,1.32.68h1.93v8.46h-1.82Zm-2.93-12.92c.52-.22,1.13-.04,1.44.43l1.54,2.31c.18.27.49.43.81.43h1.28c.18,0,.33.15.33.33s-.15.33-.33.33h-2.26c-.31,0-.61-.15-.79-.41l-1.24-1.73c-.07-.1-.18-.16-.3-.15s-.22.08-.27.19-.03.24.04.33l.5.69-.74,2.23c-.11.33-.04.7.2.96l1.94,2.19c.21.24.33.55.33.86v3.23c0,.35-.25.66-.6.71-.18.01-.36-.05-.49-.17-.13-.12-.21-.3-.21-.48v-2.05c0-.44-.15-.86-.42-1.21l-2.49-2.79c-.32-.41-.42-.95-.27-1.45,1.22-3.86,1.24-3.64,1.24-3.67.15-.44.24-.87.78-1.1h0Zm-1.91,2.43l-2.44-.85.43-1.23,2.43.84-.42,1.23Zm-1.48-3.61c.06-.17.24-.26.41-.2l1.84.64c.17.06.26.24.2.41l-.16.47c-.07.13-.13.26-.18.4-.02.05.26.13-2.44-.8l.32-.92Zm.13,6.58l-2.11-.73c-.17-.05-.28-.22-.25-.4.02-.09.08-.16.16-.21s.18-.05.26-.02c.33.12.35.13.45.12,1,.41.97.41,1.06.41.16,0,.29-.11.32-.26s-.05-.3-.2-.36c-1.47-.61-1.16-.48-1.24-.5-.09-.09-.11-.21-.07-.33l.32-.92,2.44.85c-.12.36-.6,1.8-.73,2.16-.06.17-.24.26-.41.2h0Zm-1.74,6.46l2.25-3.1c.26-.35.23-.52.47-2.18.08.11-.17-.18,1.25,1.41l-.17.95c-.04.22.1.01-2.75,3.68-.15.22-.43.33-.69.27-.26-.06-.47-.28-.51-.54-.02-.18.03-.35.14-.49h0Zm4.2-2.24c.2-.3.31-.65.33-1.02l.73.82c.18.23.27.51.27.79v2.05c0,.23.06.45.18.65h-4.06l2.55-3.3Z"/>
      </g>
      <circle class="cls-2" cx="15.74" cy="15.74" r="15.49"/>
    </g>
    <text x="4" y="39" fill="#95785e" font-size="5">Senderismo</text>
  </g>
</svg>