<?xml version="1.0" encoding="UTF-8"?>
<svg id="Capa_2" data-name="Capa 2" xmlns="http://www.w3.org/2000/svg" viewBox="0 0 33.49 43.49">
  <defs>
    <style>
      .cls-1 {
        fill: #95785e;
      }

      .cls-2 {
        fill: none;
        stroke: #95785e;
        stroke-miterlimit: 10;
        stroke-width: .5px;
      }
    </style>
  </defs>
  <g id="Capa_1-2" data-name="Capa 1">
    <g>
      <path class="cls-1" d="m25.57,25.62c-.38-.56-1.35-.89-1.65-.98-.34-.36-2.19-2.33-3.44-3.23-.14-.1-.25-.24-.31-.4l-.85-2c.22-.48.21-1.23-.18-1.96.54-.5,2.07-1.94,2.13-2.81.04-.68-.52-1.71-1.15-2.53-.34-.44-.73-.84-1.16-1.19-.45-.36-1.11-.72-1.24-.87-.16-.19-.04-.51.09-.74.38-.67.55-1.09.49-1.67-.11-.96-.85-1.62-1.88-1.67-.6-.05-1.2.16-1.64.57-.31.31-.47.75-.44,1.19.02.11.04.22.04.33-.04.11-.09.21-.16.3-.08.1-.14.22-.17.35-.01.18.09.34.25.42.09.05.09.18.09.21v.05c0,.36.06.75.79.79.24.01.43.44.42.53,0,.22-.48,2.01-.5,2.22-.03.63,0,1.25.07,1.87l-1.02.06c-.24.02-.48-.03-.7-.14l-.37-.19c-.19-.1-.41-.11-.61-.02-.19.08-.32.25-.35.46-.02.2,0,.61,0,.81-.03.27.15.52.41.59.01,0,.14.02.14.02l2.75.26s-.02.06-.03.08c-.14.26-.13.57.03.82.03.04.03.09,0,.13-.32.44-2.03,2.44-2.39,2.98-.35.53-2.35,4.87-2.7,5.63-.07.05-.19.14-.32.23-.23.16-.52.23-.8.2-.4-.05-.8.05-1.12.29-.17.12-.26.33-.25.54.02.24.17.45.38.56.55.28,1.13.51,1.73.69.32.12.66.19,1,.22.09.01.18-.02.24-.09.49-.47.65-1.5.68-1.8.3-.41,2.14-2.99,3.08-4.51.09-.14.21-.26.36-.33.31-.16.83-.44,1.4-.79.48.58,1.49,1.78,1.78,1.96.88.55,3.86,2.65,4.3,2.96.04.07.1.21.17.36.12.26.14.55.06.82-.12.38-.08.79.1,1.15.09.19.28.32.48.33.02,0,.04,0,.06,0,.22,0,.42-.11.55-.28.37-.5.7-1.03.97-1.58.5-.98.42-1.1.34-1.21h0Zm-12.8-10.18s-.08-.04-.08-.09c0-.15,0-.57,0-.66,0-.05.1-.11.24-.04.07.04.29.17.29.17.3.15.64.22.98.2l1.05-.06c.04.27.07.52.11.73l-2.58-.24Zm7.95-1.24c-.04.59-2.87,3.38-2.87,3.38-.04.04-.11.05-.16.01-.22-.13-.43-.28-.61-.46-.04-.05-.04-.13.02-.18,0,0,.02-.01.02-.02.18-.11.78-.34.78-.34.24-.11.43-.28.56-.51,0,0,.88-1.28,1.14-1.71.03-.06.05-.12.07-.18.05-.21-.02-.44-.18-.59l-.47-.5c.25-.3.53-.58.83-.83.5.7.9,1.48.87,1.93h0Zm-1.21-2.37c-.32.27-.61.56-.88.87l-.75-.78c-.11-.11-.28-.11-.39,0-.11.1-.11.27,0,.38l1.61,1.69s.04.07.02.1c0,0-1.08,1.67-1.18,1.78-.08.09-.17.16-.28.22l-.79.35c-.18.09-.3.27-.34.46-.2.02-.39.02-.59,0-.13-.13-.1-.21-.03-.38.06-.12.09-.25.07-.39-.21-1.15-.41-2.69-.34-3.57.01-.17.33-1.4.37-1.56.55-.15,1.06-.44,1.46-.86.41.23,1.58,1,2.04,1.68h0Zm-3.13-5.72c.76.04,1.29.49,1.36,1.18.05.43-.08.75-.42,1.33-.04.08-.08.16-.12.24-.14-.11-.28-.23-.4-.35.09-.16.13-.35.1-.53-.05-.31-.26-.56-.56-.66-.13-.05-.27-.05-.4-.02-.03,0-.07,0-.08-.04-.13-.33-.36-.6-.67-.77.33-.28.76-.41,1.19-.38h0Zm-1.18,3.11c-.09,0-.18-.01-.26-.05-.13-.13-.06-.49-.12-.61-.05-.08-.11-.14-.19-.19-.03-.02-.04-.06-.02-.09,0,0,0,0,0,0,.09-.13.3-.44.3-.61,0-.09-.04-.34-.04-.38,0-.11,0-.22.03-.33.26.15.45.4.51.69.06.21.28.32.49.26.03,0,.05-.02.08-.03.05-.04.12-.05.18-.03.1.03.18.12.2.22.02.14-.08.3-.28.45-.11.08-.15.22-.1.35.05.1.14.16.25.16.07-.02.14-.05.21-.09.19.2.41.37.65.52,0,.09.02.18.04.27-.28.3-.62.53-.99.69,0-.06,0-.11,0-.17-.05-.24-.15-.47-.31-.67-.15-.2-.38-.32-.62-.34h0Zm-4.31,18.84c-.83-.17-1.64-.45-2.4-.84-.05-.02-.08-.06-.09-.11,0-.02,0-.04.03-.05.17-.13.38-.2.59-.19.04,0,.09,0,.13,0,.42.05.83-.06,1.18-.3.08-.05.15-.11.21-.15.24.16.5.29.78.39-.06.36-.2.95-.43,1.25h0Zm.63-1.76c-.22-.07-.43-.18-.63-.3.51-1.13,1.15-2.54,1.68-3.64.38.27.77.52,1.18.73-.86,1.28-1.88,2.73-2.23,3.21h0Zm3.45-4.85c-.17.09-.31.22-.41.38-.15.24-.32.51-.51.8-.44-.22-.85-.48-1.24-.77.19-.43.41-.85.66-1.25.04-.05.29-.36.62-.78.53.39,1.02.84,1.47,1.32-.25.13-.45.24-.59.31Zm-.54-2.06c.55-.69,1.18-1.5,1.48-1.93.1,0,.59,0,.7,0,.01.02.03.04.04.06,0,.01.53.4.7.54.11.1.25.16.39.16h0c.15,0,.3-.06.41-.17,0,0,.3-.33.56-.59.28.64.21,1.23.01,1.45-.61.69-1.76,1.43-2.67,1.95-.5-.54-1.04-1.03-1.62-1.47h0Zm2.77,1.42c.61-.38,1.19-.82,1.71-1.31l.19.45c-.5.46-1.06.84-1.67,1.15-.08-.09-.16-.19-.24-.29Zm1.59,1.78c-.36-.33-.69-.69-.99-1.07.55-.29,1.06-.64,1.53-1.04l.31.73c.1.26.27.48.5.64h.02c-.23.41-.5.77-.83,1.08-.22-.14-.4-.27-.54-.35h0Zm4.2,2.89c-.53-.38-2.08-1.46-3.2-2.22.31-.31.58-.66.81-1.04.99.85,1.92,1.75,2.81,2.71-.12.2-.26.39-.42.56h0Zm.81,2.6s-.08.07-.13.07c-.02,0-.04-.02-.05-.04-.12-.23-.14-.5-.06-.75.12-.4.09-.83-.09-1.21-.04-.09-.09-.18-.12-.26.21-.2.38-.43.53-.68.35.12.9.36,1.15.64-.31.79-.73,1.54-1.24,2.22h0Z"/>
      <circle class="cls-2" cx="16.75" cy="16.75" r="16.5"/>
    </g>
    <text x="10" y="39" fill="#95785e" font-size="5">Fitness</text>
  </g>
</svg>