<?xml version="1.0" encoding="UTF-8"?>
<svg id="Capa_2" data-name="Capa 2" xmlns="http://www.w3.org/2000/svg" viewBox="0 0 33.49 43.49">
  <defs>
    <style>
      .cls-1 {
        fill: #95785e;
      }

      .cls-2 {
        fill: none;
        stroke: #95785e;
        stroke-miterlimit: 10;
        stroke-width: .5px;
      }
    </style>
  </defs>
  <g id="Capa_1-2" data-name="Capa 1">
    <g>
      <g>
        <path class="cls-1" d="m26.55,22.26c.18,0,.32-.15.32-.32s-.15-.32-.32-.32h-.32c0-.18-.15-.32-.32-.32s-.32.15-.32.32h-5.19c0-.18-.15-.32-.32-.32s-.32.15-.32.32h-.32c-.18,0-.32.15-.32.32s.15.32.32.32h.32v.97h-.32c-.18,0-.32.15-.32.32s.15.32.32.32h.32v.32h-.32c-.18,0-.32.15-.32.32s.15.32.32.32h.32v.97h-5.51v-2.68c.48.27,1.02.41,1.57.41,1.84-.03,3.32-1.54,3.29-3.38,0-1.28-.71-2.46-1.85-3.04.38-.51.58-1.13.57-1.77.01-1.4-.97-2.61-2.35-2.89.35-.77.29-1.66-.16-2.37-.45-.71-1.22-1.15-2.06-1.18,0,0-.02,0-.03,0-.17-1.12-1.14-1.94-2.27-1.92-1.13.01-2.08.85-2.22,1.98-.82.16-1.39.91-1.31,1.75.08.83.78,1.47,1.61,1.47h1.89c.03.09.06.18.1.27-1.37.28-2.36,1.49-2.34,2.9,0,.63.2,1.25.57,1.77-1.14.58-1.86,1.76-1.85,3.04-.02,1.84,1.45,3.35,3.29,3.38.55,0,1.09-.14,1.57-.41v2.68h-4.54c-.18,0-.32.15-.32.32s.15.32.32.32h18.81c.18,0,.32-.15.32-.32s-.15-.32-.32-.32h-.32v-.97h.32c.18,0,.32-.15.32-.32s-.15-.32-.32-.32h-.32v-.32h.32c.18,0,.32-.15.32-.32s-.15-.32-.32-.32h-.32v-.97h.32Zm-15.75-10.82s0,.07,0,.11h-1.78c-.54,0-.97-.44-.97-.97s.44-.97.97-.97c.09,0,.17-.03.23-.09s.09-.14.09-.23c0-.85.65-1.55,1.49-1.62.84-.07,1.6.53,1.73,1.37-1.06.32-1.78,1.3-1.77,2.41Zm2.77,14.39h-.65v-3.16c.12-.11.22-.22.32-.35.1.12.21.24.32.35v3.16h0Zm.04-4.12l2.14-2.14c.12-.13.12-.33,0-.46s-.33-.13-.46,0l-1.72,1.72v-3.3l1.53-1.53c.13-.13.12-.33,0-.46-.13-.13-.33-.13-.46,0l-1.07,1.07v-1.49c0-.18-.15-.32-.32-.32s-.32.15-.32.32v1.49l-1.07-1.07c-.13-.13-.33-.12-.46,0s-.13.33,0,.46l1.53,1.53v3.3l-1.72-1.72c-.13-.13-.33-.12-.46,0-.13.13-.13.33,0,.46l2.14,2.14c-.47.75-1.3,1.2-2.18,1.2-1.48-.03-2.67-1.25-2.65-2.73-.01-1.17.73-2.22,1.84-2.6.11-.04.19-.12.21-.23s0-.23-.09-.3c-.45-.44-.7-1.04-.69-1.66-.02-1.24.96-2.26,2.2-2.3.13.01.26-.06.33-.18.06-.11.04-.24-.03-.34-.24-.32-.37-.72-.37-1.12-.02-1.01.79-1.84,1.8-1.86,1.01.02,1.81.85,1.8,1.86,0,.4-.13.8-.37,1.12-.07.1-.08.23-.02.34.06.11.17.18.29.18,1.25.02,2.24,1.05,2.22,2.3,0,.62-.25,1.22-.69,1.66-.08.08-.11.19-.09.3s.11.2.21.23c1.25.44,2.01,1.7,1.81,3s-1.3,2.29-2.61,2.33c-.88,0-1.71-.46-2.18-1.2Zm11.96,4.12h-5.19v-.97h5.19v.97Zm0-1.62h-5.19v-.32h5.19v.32Zm0-.97h-5.19v-.97h5.19v.97Z"/>
        <path class="cls-1" d="m21.36,15.13h3.89c.84,0,1.54-.64,1.61-1.47.08-.83-.49-1.59-1.31-1.75-.15-1.13-1.11-1.98-2.25-1.98s-2.1.84-2.25,1.98c-.82.16-1.39.91-1.31,1.75s.78,1.47,1.61,1.47Zm0-2.6c.09,0,.17-.03.23-.09.06-.06.09-.14.09-.23,0-.9.73-1.62,1.62-1.62s1.62.73,1.62,1.62c0,.09.03.17.09.23.06.06.14.09.23.09.54,0,.97.44.97.97s-.44.97-.97.97h-3.89c-.54,0-.97-.44-.97-.97s.44-.97.97-.97Z"/>
      </g>
      <circle class="cls-2" cx="16.75" cy="16.75" r="16.5"/>
    </g>
    <text x="4" y="39" fill="#95785e" font-size="5">Parque lineal</text>
  </g>
</svg>