<?xml version="1.0" encoding="UTF-8"?>
<svg id="Capa_2" data-name="Capa 2" xmlns="http://www.w3.org/2000/svg" viewBox="0 0 31.48 41.48">
  <defs>
    <style>
      .cls-1 {
        fill: #95785e;
      }

      .cls-2 {
        fill: none;
        stroke: #95785e;
        stroke-miterlimit: 10;
        stroke-width: .5px;
      }
    </style>
  </defs>
  <g id="Capa_1-2" data-name="Capa 1">
    <g>
      <path class="cls-1" d="m25.4,17.22c-.1-1.04-.61-1.98-1.41-2.65-.81-.67-1.83-.97-2.87-.87-.49.05-.95.18-1.39.4l-.1.05-.71-1.11-.68-2.04h1.84c.4,0,.73.33.73.73s-.33.73-.73.73h-.08v.56h.08c.71,0,1.29-.58,1.29-1.29s-.58-1.29-1.29-1.29h-2.23c-.15,0-.28.13-.28.28,0,.03,0,.06.01.09l.69,2.06h-5v-1.06h1.34c.15,0,.28-.13.28-.28,0-1.05-.85-1.9-1.9-1.9s-1.9.85-1.9,1.9c0,.15.13.28.28.28h1.34v1.25l-.89,1.22-.1-.06c-.91-.53-1.96-.67-2.98-.4-1.01.27-1.86.91-2.39,1.82-1.09,1.87-.45,4.28,1.42,5.37.91.53,1.96.67,2.98.4,1.01-.27,1.86-.91,2.39-1.82.15-.25.27-.53.36-.81l.09-.28.14.25c.2.35.51.6.9.7.38.11.79.06,1.13-.14.35-.2.6-.51.7-.9s.06-.79-.14-1.13c-.05-.09-.12-.18-.19-.27l-.07-.07,2.4-3.6.7,1.1-.09.07c-1.7,1.34-2,3.81-.66,5.51.65.82,1.58,1.35,2.62,1.47,1.04.13,2.07-.16,2.89-.81.8-.63,1.33-1.55,1.46-2.56,0-.05.01-.09.02-.14v-.79Zm-13.74-5.97l.06-.17c.19-.53.7-.89,1.26-.89.57,0,1.08.36,1.26.89l.06.17h-2.65Zm1.38,7.04c-.32,1.56-1.71,2.69-3.3,2.69h0c-.9,0-1.74-.35-2.38-.98-.64-.63-.99-1.48-.99-2.38,0-1.86,1.5-3.37,3.36-3.37h0c.57,0,1.13.15,1.63.42l.12.07-1.36,1.87-.09-.03c-.1-.03-.2-.05-.31-.05h0c-.29,0-.56.11-.77.32-.21.21-.32.48-.32.77s.11.57.32.77c.21.21.48.32.77.32h0c.43,0,.82-.25,1-.65l.04-.08,2.3.18-.03.14Zm-2.77-.68c0,.29-.24.53-.53.53s-.53-.24-.53-.53.24-.53.53-.53.53.24.53.53Zm.54-.2l-.02-.09c-.03-.12-.08-.23-.15-.33l-.05-.07,1.35-1.86.1.1c.64.6,1.02,1.41,1.06,2.29v.14s-2.29-.18-2.29-.18Zm2.85-.09l-.04-.29c-.13-.91-.58-1.74-1.27-2.35l-.08-.08.65-.89,1.27,3.05-.08.06c-.1.08-.19.16-.27.26l-.18.23Zm1.35,1.63c-.52,0-.94-.42-.94-.94s.42-.94.94-.94.94.42.94.94-.42.94-.94.94Zm.58-2.31l-.09-.03c-.16-.06-.32-.09-.49-.09-.07,0-.14,0-.21.02l-.1.02-1.3-3.13h4.32l-2.14,3.21Zm9.09,2.1c-.3.85-.91,1.53-1.73,1.91-.45.21-.95.33-1.45.33h0c-.9,0-1.75-.35-2.38-.99s-.98-1.48-.98-2.38c0-1,.44-1.95,1.22-2.59l.11-.09,1.24,1.95-.06.07c-.15.19-.23.42-.24.67,0,.6.49,1.09,1.09,1.09s1.09-.49,1.09-1.09-.49-1.09-1.09-1.09c-.08,0-.16.01-.24.03l-.09.02-1.23-1.94.13-.06c.81-.39,1.73-.43,2.57-.13.85.3,1.53.92,1.91,1.73.39.81.43,1.73.13,2.57Zm-3.71-1.13c0-.29.24-.53.53-.53s.53.24.53.53-.24.53-.53.53-.53-.24-.53-.53Z"/>
      <circle class="cls-2" cx="15.74" cy="15.74" r="15.49"/>
    </g>
    <text x="7" y="39" fill="#95785e" font-size="5">Bicicleta</text>
  </g>
</svg>