<?xml version="1.0" encoding="UTF-8"?>
<svg id="Capa_2" data-name="Capa 2" xmlns="http://www.w3.org/2000/svg" viewBox="0 0 31.48 41.48">
  <defs>
    <style>
      .cls-1 {
        fill: #95785e;
      }

      .cls-2 {
        fill: none;
        stroke: #95785e;
        stroke-miterlimit: 10;
        stroke-width: .5px;
      }
    </style>
  </defs>
  <g id="Capa_1-2" data-name="Capa 1">
    <g>
      <path class="cls-1" d="m6.35,20.78c.05.04.11.06.17.06.03,0,.07,0,.1-.02l.28.7c-.11.04-.19.14-.19.27,0,.15.12.28.28.28h17.52c.15,0,.28-.12.28-.28,0-.12-.08-.23-.19-.27l.28-.7s.07.02.1.02c.06,0,.12-.02.17-.06.12-.09.15-.27.05-.39l-.1-.13c.04-.14-.03-.28-.16-.34-.04-.01-.07-.02-.11-.02l-8.26-10.88c-.1-.17-.22-.4-.54-.51v-1.32c0-.15-.12-.28-.28-.28s-.28.12-.28.28v1.32c-.32.11-.43.33-.54.51l-8.26,10.88s-.07,0-.11.02c-.13.05-.2.2-.16.34l-.1.13c-.09.12-.07.3.05.39h0Zm9.11-6.19h-1.62c-.49,0-.89.4-.89.89v6.03h-5.15l7.66-12.3c0,.08,0,4.57,0,5.39Zm-1.95.89c0-.18.15-.33.33-.33h1.62v6.35h-1.95v-6.03Zm5.02,6.03v-2.34c0-.15-.12-.28-.28-.28s-.28.12-.28.28v2.34h-1.95v-6.35h1.62c.18,0,.33.15.33.33v3.5c0,.15.12.28.28.28s.28-.12.28-.28v-3.5c0-.49-.4-.89-.89-.89h-1.62v-5.39l7.66,12.3h-5.15Zm5.93-1.15l-.33.82-4.36-7.01,4.69,6.19Zm-17.1.82l-.33-.82,4.69-6.19-4.36,7.01Z"/>
      <circle class="cls-2" cx="15.74" cy="15.74" r="15.49"/>
    </g>
    <text x="7" y="39" fill="#95785e" font-size="5">Glamping</text>
  </g>
</svg>