<?xml version="1.0" encoding="UTF-8"?>
<svg id="Capa_2" data-name="Capa 2" xmlns="http://www.w3.org/2000/svg" viewBox="0 0 31.48 41.48">
  <defs>
    <style>
      .cls-1 {
        fill: #95785e;
      }

      .cls-2 {
        fill: none;
        stroke: #95785e;
        stroke-miterlimit: 10;
        stroke-width: .5px;
      }
    </style>
  </defs>
  <g id="Capa_1-2" data-name="Capa 1">
    <g>
      <g id="Page-1">
        <g id="_005---Jungle-Hut" data-name="005---Jungle-Hut">
          <path id="Shape" class="cls-1" d="m22.77,20.21v-2.09c.39-.12.7-.24.91-.33.16-.06.28-.19.33-.36.05-.16.02-.34-.08-.48-.45-.66-.94-1.3-1.46-1.91.03-.05.06-.1.08-.16.05-.18,0-.38-.11-.52-.53-.62-1.11-1.19-1.73-1.72,0-.02.01-.03.02-.04.06-.21-.01-.43-.18-.57-.77-.66-2.66-2.22-4.35-3.14l.29-.29c.11-.11.11-.29,0-.39-.11-.11-.28-.11-.39,0l-.08.08v-.16c0-.16-.13-.28-.28-.28s-.28.13-.28.28v.16l-.08-.08c-.11-.11-.29-.11-.39,0-.11.11-.11.28,0,.39l.29.29c-1.68.92-3.58,2.48-4.35,3.14-.17.14-.23.36-.18.57,0,.02.01.03.02.04-.62.53-1.2,1.11-1.74,1.72-.12.14-.16.34-.11.52.02.06.04.11.08.16-.52.61-1.01,1.25-1.46,1.92-.1.14-.12.32-.07.48.05.16.17.29.33.36.21.09.52.2.91.33v5.53h14.09l-.02-3.45Zm-.56,2.91h-3.66v-3.19c0-.34-.09-.66-.25-.96h.15s0-.01,0-.01c1.27-.11,2.53-.34,3.76-.67v4.83Zm-8.72-3.19c0-.33.12-.66.34-.91.19.01.38.02.58.03h0c.42.02.86.03,1.33.03s.9-.01,1.33-.03h0c.2,0,.39-.02.58-.03.22.25.34.57.34.91v3.19h-4.5v-3.19Zm2.25-10.66c1.68.87,3.66,2.5,4.45,3.18-.35.06-.82.15-1.38.22l-.59-.79c-.06-.08-.16-.12-.26-.11s-.19.08-.23.17c-.04.09-.03.2.03.28l.4.53c-.27.03-.55.06-.84.08l-.19-.59c-.03-.1-.11-.17-.21-.19-.1-.02-.2.01-.27.09-.07.08-.09.18-.06.28l.15.45c-.24.01-.48.02-.73.03v-.56c0-.16-.13-.28-.28-.28s-.28.13-.28.28v.56c-.24,0-.49-.01-.73-.03l.15-.45c.05-.15-.03-.31-.18-.36-.15-.05-.31.03-.36.18l-.19.59c-.29-.02-.57-.05-.84-.08l.4-.53c.06-.08.07-.19.03-.28-.04-.09-.13-.16-.23-.17-.1-.01-.2.03-.26.11l-.59.79c-.56-.07-1.03-.16-1.38-.22.79-.67,2.77-2.31,4.45-3.18h0Zm-4.53,3.73c1.5.28,3.01.43,4.53.45,1.52-.02,3.04-.17,4.54-.45.63.53,1.21,1.1,1.74,1.72-.23.07-.56.17-.96.27l-.62-.62c-.11-.11-.29-.11-.39,0s-.11.28,0,.39l.37.37c-.21.05-.44.1-.68.14l-.39-.59c-.09-.13-.26-.16-.39-.07s-.16.26-.08.39l.26.39c-.21.04-.43.07-.65.1l-.24-.49c-.07-.14-.24-.2-.38-.13s-.2.24-.13.38l.16.31c-.2.02-.41.04-.61.06l-.14-.57c-.02-.1-.1-.18-.2-.2s-.2,0-.27.07-.1.17-.08.27l.12.47c-.23.01-.46.02-.69.02v-.56c0-.16-.13-.28-.28-.28s-.28.13-.28.28v.56c-.23,0-.46-.01-.69-.02l.12-.47c.04-.15-.06-.3-.21-.34s-.3.05-.34.2l-.14.57c-.21-.02-.41-.04-.61-.06l.16-.31c.07-.14.01-.31-.13-.38s-.31-.01-.38.13l-.24.49c-.22-.03-.44-.06-.65-.1l.26-.39c.06-.08.07-.19.02-.28s-.14-.15-.24-.16-.2.04-.25.13l-.39.59c-.24-.05-.46-.09-.67-.14l.37-.37c.11-.11.11-.29,0-.39s-.28-.11-.39,0l-.62.62c-.4-.1-.73-.2-.96-.27.53-.62,1.12-1.19,1.74-1.72h0Zm-1.7,2.32c1.6.47,3.24.77,4.9.9h.01c.43.03.87.05,1.32.05s.89-.02,1.32-.05h.01c1.66-.12,3.31-.42,4.9-.9.54.62,1.04,1.27,1.5,1.95-.17.07-.46.18-.85.3l-.47-.63c-.09-.12-.27-.15-.39-.06-.12.09-.15.27-.06.39l.35.46c-.21.06-.43.11-.67.17l-.32-.65c-.04-.09-.13-.15-.23-.16s-.2.04-.25.13-.06.19-.02.28l.26.52c-.26.05-.54.11-.84.15l-.32-.64c-.04-.09-.13-.15-.23-.16s-.2.04-.25.13-.06.19-.02.28l.24.48c-.23.03-.47.06-.72.09l-.12-.48c-.04-.15-.19-.24-.34-.2-.15.04-.24.19-.2.34l.1.4c-.26.02-.53.04-.81.06l-.15-.59c-.04-.15-.19-.24-.34-.2-.15.04-.24.19-.21.33l.12.48c-.23,0-.46.01-.69.01v-.56c0-.16-.13-.28-.28-.28s-.28.13-.28.28v.56c-.23,0-.47,0-.69-.01l.12-.48c.03-.1,0-.2-.07-.28s-.18-.1-.28-.07-.17.11-.19.21l-.15.59c-.28-.02-.55-.03-.81-.06l.1-.4c.02-.1,0-.2-.08-.27s-.18-.1-.27-.07c-.1.03-.17.1-.2.2l-.12.48c-.25-.03-.49-.06-.72-.09l.24-.48c.07-.14.01-.31-.13-.38-.14-.07-.31-.01-.38.12l-.32.64c-.3-.05-.58-.1-.84-.15l.26-.52c.05-.09.04-.2-.02-.28-.06-.08-.15-.13-.25-.13s-.19.07-.23.16l-.32.65c-.24-.06-.47-.11-.67-.17l.35-.46c.06-.08.07-.19.03-.28s-.13-.16-.23-.17-.2.03-.26.11l-.47.63c-.39-.12-.68-.23-.85-.3.46-.68.96-1.33,1.5-1.95h0Zm-.23,5v-2.04c1.23.33,2.49.56,3.76.67h.15c-.16.31-.25.64-.25.97v3.19h-3.66v-2.79Z"/>
        </g>
      </g>
      <circle class="cls-2" cx="15.74" cy="15.74" r="15.49"/>
    </g>
    <text x="4" y="39" fill="#95785e" font-size="5">Cenote club</text>
  </g>
</svg>