<?xml version="1.0" encoding="UTF-8"?>
<svg id="Capa_2" data-name="Capa 2" xmlns="http://www.w3.org/2000/svg" viewBox="0 0 31.48 41.48">
  <defs>
    <style>
      .cls-1 {
        fill: #95785e;
      }

      .cls-2 {
        fill: none;
        stroke: #95785e;
        stroke-miterlimit: 10;
        stroke-width: .5px;
      }
    </style>
  </defs>
  <g id="Capa_1-2" data-name="Capa 1">
    <g>
      <circle class="cls-2" cx="15.74" cy="15.74" r="15.49"/>
      <path class="cls-1" d="m22.04,10.76l-4.31,2.31-1.55.78c-.14.07-.2.23-.15.37l1.88,5.18-.33.18c-.53.36-1.18.55-1.85.54-.65.01-1.31-.17-1.86-.54-.33-.2-.69-.36-1.07-.47l-.2-.06v-2.91h1.42c.17,0,.3-.14.3-.3v-2.29c0-.17-.14-.3-.3-.3H3.71c-.17,0-.3.14-.3.3s.14.3.3.3h10.01v1.69H3.71c-.17,0-.3.14-.3.3s.14.3.3.3h.84v2.9l-.3-.03c-.18-.02-.36-.03-.55-.03-.16,0-.3.14-.3.3s.14.3.3.3c.67,0,1.31.17,1.87.54.64.41,1.39.62,2.14.6.77.02,1.51-.19,2.15-.6.55-.37,1.21-.55,1.87-.54.03,0,.05,0,.08,0,.63,0,1.25.19,1.79.55.63.41,1.37.63,2.13.6.79.02,1.51-.19,2.15-.6.55-.37,1.21-.56,1.87-.54.65,0,1.31.17,1.86.54.64.41,1.38.62,2.14.6.77.01,1.51-.19,2.15-.6.55-.37,1.22-.56,1.87-.54.16,0,.3-.13.3-.3s-.14-.3-.3-.3h0c-.35,0-.7.04-1.04.12l-.49.12,1.82-4.99c.05-.14-.01-.3-.15-.37l-1.55-.78-4.31-2.31Zm3.39,8.96l-.09.05c-.45.23-.94.35-1.45.35-.05,0-.1,0-.14,0-.4.01-.83-.06-1.23-.22l-.17-.07v-5.78l4.36,2.14-1.26,3.52Zm-8.75-5.45l5.36-2.68,5.36,2.68-.49,1.33-4.73-2.33c-.08-.04-.18-.04-.27,0l-4.73,2.33-.49-1.33Zm.7,1.91l4.36-2.15v5.44l-.38-.17c-.5-.23-1.05-.33-1.6-.33h0c-.35,0-.7.04-1.04.12l-.24.06-1.08-2.98Zm-6.5-.04h1.11v2.83h-.27c-.2,0-.37,0-.52.03l-.32.06v-2.93Zm-4.01,0h3.41v3.09l-.16.07c-.1.04-.19.1-.28.15-.09.05-.18.1-.27.14-.53.35-1.14.53-1.77.53-.03,0-.05,0-.08,0-.2,0-.4-.01-.6-.04l-.23-.03v-3.9Zm-1.72,0h1.11v3.64l-.38-.17c-.1-.04-.19-.1-.3-.16-.09-.05-.18-.1-.28-.15l-.15-.07v-3.08Z"/>
    </g>
    <text x="3" y="39" fill="#95785e" font-size="5">Embarcadero</text>
  </g>
</svg>